<svg width="180" height="180" viewBox="0 0 180 180" fill="none" xmlns="http://www.w3.org/2000/svg" preserveAspectRatio="xMidYMid meet">
<g id="Layer_1-2">
<path id="Vector" d="M90 180C139.706 180 180 139.706 180 90C180 40.2944 139.706 0 90 0C40.2944 0 0 40.2944 0 90C0 139.706 40.2944 180 90 180Z" fill="var(--fill-0, black)"/>
<path id="Vector_2" d="M28.9492 43.6271L28.678 44.0339C28.3729 43.8644 28.1017 43.6949 27.8983 43.6271C27.661 43.5254 27.4576 43.5254 27.2881 43.5593C27.0847 43.5932 26.8814 43.7288 26.7119 43.8983C26.5424 44.0678 26.3051 44.3729 26.0678 44.7458L24.6441 46.9492L33.5932 52.7458C33.9322 52.9831 34.2373 53.1525 34.5085 53.2542C34.7458 53.3559 34.9831 53.3898 35.1864 53.3559C35.3898 53.3559 35.5593 53.2203 35.7627 53.0508C35.9322 52.8814 36.1356 52.6441 36.339 52.339L36.7458 52.5763C36.5763 52.8475 36.3729 53.1525 36.1356 53.5254C35.8983 53.8644 35.661 54.2373 35.4237 54.6102C35.1864 54.9831 34.9492 55.3559 34.7119 55.7288C34.4746 56.1017 34.2712 56.4068 34.1356 56.678L33.7288 56.4407C34.1017 55.8644 34.2712 55.3898 34.1695 55.0169C34.1017 54.678 33.6949 54.2712 32.9831 53.8305L24.0339 48.0339L22.8136 49.9322C22.5763 50.3051 22.3729 50.6441 22.2712 50.9153C22.1695 51.1864 22.1017 51.4576 22.1356 51.661C22.1695 51.8644 22.2373 52.1017 22.3729 52.339C22.5085 52.5763 22.7119 52.8136 22.9831 53.0847L22.7119 53.4915L20.678 51.9322C21.1525 51.2881 21.661 50.5085 22.2373 49.6949C22.8136 48.8475 23.3559 48 23.9322 47.0847C24.5085 46.2034 25.0847 45.322 25.6271 44.4407C26.1695 43.5932 26.6441 42.8136 27.0508 42.1017L29.1186 43.6271H28.9492Z" fill="var(--fill-0, white)"/>
<path id="Vector_3" d="M34.5763 43.7966C34.5085 43.4915 34.4407 43.1864 34.4407 42.8475C34.4407 42.5085 34.4068 42.2034 34.4068 41.8983C34.4068 41.5932 34.4746 41.322 34.5424 41.0508C34.6102 40.7797 34.7119 40.5763 34.8475 40.4407C35.0508 40.2034 35.2542 40.0678 35.5254 40C35.7966 39.9322 36.0339 40 36.2373 40.1695C36.4746 40.3729 36.5763 40.5763 36.5763 40.8136C36.5763 41.0508 36.5424 41.2203 36.4068 41.3559C36.3051 41.4576 36.2034 41.5593 36.1356 41.5932C36.0339 41.6271 35.9661 41.661 35.8305 41.6949C35.7288 41.6949 35.6271 41.7627 35.5254 41.7966C35.4237 41.8305 35.322 41.9322 35.1864 42.0678C35.1186 42.1695 35.0508 42.3051 35.017 42.5424C34.9831 42.7797 34.9492 43.017 34.9831 43.2542C34.9831 43.5254 35.017 43.7627 35.1186 44.0339C35.2203 44.2712 35.322 44.4746 35.5254 44.6441L38.5424 47.1864C38.7797 47.3898 38.9831 47.5254 39.1525 47.6271C39.322 47.7288 39.4915 47.7288 39.661 47.6949C39.8305 47.661 40.0339 47.5254 40.2373 47.3559C40.4407 47.1864 40.678 46.9153 40.9831 46.5424L41.322 46.8475C41.1186 47.0508 40.8814 47.322 40.6102 47.6271C40.339 47.9322 40.0339 48.2712 39.7627 48.6102C39.4576 48.9492 39.1864 49.2881 38.9153 49.5932C38.6441 49.9322 38.4407 50.2034 38.2373 50.4068L37.8983 50.1017C38.3051 49.6271 38.5085 49.2542 38.5085 49.017C38.5085 48.7797 38.2712 48.4407 37.7966 48.0339L34.4746 45.2203C34.2034 45.0169 34 44.8475 33.8305 44.7458C33.661 44.6441 33.5254 44.5763 33.3898 44.5424C33.2542 44.5424 33.1186 44.5424 33.017 44.6441C32.9153 44.7458 32.7458 44.8814 32.5763 45.0847L32.2712 44.8475C32.4746 44.5085 32.6441 44.1695 32.7458 43.8305C32.8475 43.4915 32.9153 43.1525 32.9153 42.7458L33.1186 42.4746C33.3559 42.7119 33.5932 42.9492 33.8644 43.1864C34.1356 43.4237 34.3729 43.6271 34.6102 43.8305L34.5763 43.7966Z" fill="var(--fill-0, white)"/>
<path id="Vector_4" d="M46.9492 39.1186C46.8475 39.8644 46.6441 40.6102 46.4068 41.2881C46.1695 42 45.8305 42.5424 45.3559 42.9492C45.1864 43.1186 44.9831 43.2203 44.7458 43.322C44.5085 43.4237 44.2712 43.4576 43.9661 43.4576C43.6949 43.4576 43.4237 43.3559 43.1525 43.2203C42.8814 43.0847 42.5763 42.8475 42.2712 42.5424L38.8136 38.7458C38.5424 38.4407 38.2712 38.2712 38.0678 38.2712C37.8644 38.2712 37.5593 38.4407 37.1864 38.7119L36.9492 38.4407C37.0847 38.339 37.1864 38.2034 37.322 38.0678C37.4576 37.9322 37.5593 37.7966 37.6949 37.661C37.8305 37.5254 37.9661 37.3559 38.1017 37.2203C38.2373 37.0508 38.4068 36.8814 38.5763 36.7119C38.7119 36.9153 38.9153 37.1186 39.1186 37.3898C39.322 37.6271 39.4915 37.8305 39.6271 37.9661L42.4068 41.0169C43.0508 41.7288 43.5932 42.1356 43.9661 42.1695C44.3729 42.2373 44.7797 42.0678 45.1864 41.6949C45.5254 41.3898 45.8305 40.9492 46.0678 40.3729C46.3051 39.8305 46.4407 39.2542 46.5085 38.6441L43.0508 34.8136C42.7797 34.5085 42.4746 34.3729 42.2373 34.4407C41.9661 34.5085 41.661 34.678 41.2881 34.9492L41.0508 34.678C41.1864 34.5763 41.322 34.4407 41.4576 34.3051C41.5932 34.1695 41.7288 34 41.8983 33.8644C42.0339 33.7288 42.2034 33.5593 42.3729 33.3898C42.5424 33.2203 42.7119 33.0508 42.8814 32.8475C43.017 33.0508 43.2203 33.2542 43.4237 33.5254C43.6271 33.7627 43.7966 33.9661 43.9322 34.1017L47.8305 38.3729C48.1017 38.678 48.339 38.7797 48.5085 38.7119C48.7119 38.6441 48.983 38.4407 49.2881 38.0678L49.5254 38.339C49.4576 38.4407 49.3559 38.5763 49.2542 38.7119C49.1525 38.8814 49.0508 39.0169 48.9492 39.2203C48.8136 39.3898 48.7119 39.5932 48.6102 39.7627C48.5085 39.9322 48.3729 40.1017 48.2712 40.2712C48.2373 40.339 48.2034 40.3729 48.1356 40.3729C48.1017 40.3729 48.0339 40.3729 48 40.3051L46.8814 39.0847L46.9492 39.1186Z" fill="var(--fill-0, white)"/>
<path id="Vector_5" d="M49.5254 35.5593C49.6949 35.7627 49.8983 35.9322 50.1356 36.1356C50.3729 36.339 50.6102 36.4746 50.8814 36.5763C51.1525 36.678 51.4237 36.7119 51.7288 36.678C52.0339 36.678 52.3729 36.5085 52.7119 36.2712C53.2881 35.8644 53.5932 35.4576 53.661 35.0508C53.6949 34.6441 53.6271 34.3051 53.4237 34C53.2542 33.7627 53.0847 33.5932 52.8475 33.4915C52.6441 33.3898 52.4068 33.322 52.1695 33.2881C51.9322 33.2881 51.661 33.2881 51.3898 33.2881C51.1186 33.322 50.8136 33.3559 50.5424 33.3898C49.8305 33.4576 49.1525 33.4576 48.5424 33.3898C47.9322 33.322 47.4237 32.9831 47.0847 32.4746C46.9153 32.2034 46.7797 31.9322 46.7119 31.5932C46.6441 31.2542 46.678 30.9492 46.7119 30.6102C46.7797 30.2712 46.9492 29.9661 47.1525 29.661C47.3559 29.3559 47.661 29.0508 48.0339 28.8136C48.2712 28.6441 48.5763 28.4746 48.9153 28.339C49.2542 28.2034 49.6271 28.1017 50 28.0678L51.2881 29.661L50.9831 29.8983C50.5424 29.4237 50.1017 29.1525 49.661 29.0508C49.2203 28.9492 48.7119 29.0508 48.2034 29.4237C47.7966 29.6949 47.5254 30.0339 47.3559 30.4407C47.1864 30.8475 47.2203 31.2203 47.4576 31.5593C47.6271 31.7966 47.8305 31.9661 48.0678 32.0678C48.3051 32.1695 48.5763 32.2373 48.8475 32.2373C49.1186 32.2373 49.4237 32.2373 49.7288 32.1695C50.0339 32.1356 50.339 32.0678 50.678 32C50.9831 31.9661 51.2881 31.8983 51.5932 31.8644C51.8983 31.8305 52.2034 31.8644 52.5085 31.8644C52.7797 31.8983 53.0509 32 53.322 32.1695C53.5932 32.3051 53.7966 32.5424 54 32.8136C54.2034 33.0847 54.339 33.3898 54.4068 33.7288C54.4746 34.0678 54.5085 34.4068 54.4068 34.7458C54.339 35.1186 54.2034 35.4576 53.9322 35.7966C53.6949 36.1356 53.3559 36.4746 52.9153 36.7797C52.6102 36.9831 52.2373 37.1864 51.8305 37.322C51.4237 37.4576 51.0509 37.5593 50.678 37.5593L49.1525 35.7288L49.4915 35.4915L49.5254 35.5593Z" fill="var(--fill-0, white)"/>
<path id="Vector_6" d="M57.1186 30.9492C57.4576 31.5932 57.7966 31.9661 58.1017 32.0678C58.4068 32.2034 58.7119 32.1695 59.0508 32C59.1525 31.9322 59.2542 31.8644 59.3898 31.7627C59.5254 31.661 59.6271 31.5254 59.7627 31.3898C59.8983 31.2542 60 31.1186 60.0678 31.0169C60.1695 30.8814 60.2034 30.7797 60.2712 30.7119L60.5424 30.8475C60.4068 31.3559 60.2034 31.7966 59.9661 32.1695C59.7288 32.5424 59.3898 32.8475 58.9831 33.0847C58.5085 33.3559 58.0678 33.4237 57.6271 33.2881C57.2203 33.1525 56.8475 32.8475 56.5763 32.339L53.5593 26.8814L52.4068 27.5254L52.2373 27.2203C52.7119 26.7797 52.9491 26.2712 53.0169 25.7627C53.0847 25.2203 52.9831 24.6102 52.7119 23.8305L53.0508 23.6271L54.1356 25.6271L56.7458 24.2034L57.1525 24.9153L54.5424 26.339L57.1186 30.9831V30.9492Z" fill="var(--fill-0, white)"/>
<path id="Vector_7" d="M60.5424 25.7288C60.5763 25.8983 60.6441 26.1017 60.7119 26.3051C60.7797 26.5085 60.9153 26.7458 61.0508 27.0508C61.4576 27.8983 62.0339 28.5085 62.7797 28.9153C63.4915 29.2881 64.2712 29.322 65.1186 28.9831C65.6949 28.7458 66.1356 28.4407 66.4746 28.0339C66.8136 27.6271 67.017 27.2203 67.1525 26.7797L67.4576 26.8475C67.3898 27.5593 67.1525 28.2034 66.7797 28.8136C66.4068 29.4237 65.8644 29.8644 65.1864 30.1695C64.7119 30.3729 64.2034 30.4746 63.6949 30.4407C63.1864 30.4407 62.7119 30.2712 62.2373 30.0339C61.7627 29.7966 61.3559 29.4576 60.983 29.0508C60.6102 28.6441 60.2712 28.1356 60.0339 27.5593C59.7288 26.8475 59.5593 26.1695 59.4915 25.4915C59.4237 24.8475 59.4915 24.2712 59.6271 23.7288C59.7627 23.1864 60.0339 22.7458 60.3729 22.339C60.7119 21.9322 61.1186 21.661 61.6271 21.4576C61.9661 21.322 62.339 21.2203 62.7119 21.1864C63.1186 21.1864 63.4915 21.1864 63.8644 21.322C64.2373 21.4576 64.5763 21.661 64.9153 21.9322C65.2542 22.2034 65.4915 22.6102 65.7288 23.0847C65.7966 23.2203 65.7966 23.322 65.7966 23.3898C65.7966 23.4576 65.7288 23.5593 65.5932 23.6271L60.5424 25.7627V25.7288ZM63.9661 23.661C64.1695 23.5593 64.3051 23.4915 64.3729 23.3898C64.4407 23.2881 64.4407 23.1525 64.3729 22.9831C64.3051 22.8136 64.1695 22.6102 64 22.4407C63.8305 22.2712 63.6271 22.1356 63.4237 22.0339C63.1864 21.9322 62.9491 21.8644 62.678 21.8644C62.4068 21.8644 62.1017 21.8983 61.8305 22.0339C61.1864 22.3051 60.7458 22.7458 60.5085 23.2881C60.2712 23.8644 60.2373 24.5085 60.4068 25.1864L64.0339 23.661H63.9661Z" fill="var(--fill-0, white)"/>
<path id="Vector_8" d="M72.6102 14.5085C72.5424 14.2034 72.4407 13.9661 72.3729 13.7627C72.3051 13.5932 72.2034 13.4576 72.0678 13.3559C71.9661 13.2881 71.8305 13.2542 71.661 13.2881C71.4915 13.2881 71.2881 13.3559 71.0169 13.4237L70.9153 13.0508C71.2881 12.8814 71.6271 12.678 71.9661 12.4407C72.3051 12.2034 72.5763 11.8983 72.7797 11.5932L73.1186 11.5254C73.1525 11.8644 73.2203 12.2034 73.322 12.5763C73.3898 12.9492 73.4915 13.2881 73.5593 13.5593L76.4068 24.4746C76.5085 24.8814 76.678 25.0847 76.9153 25.1186C77.1525 25.1186 77.4576 25.1186 77.8983 24.9492L78 25.322C77.7966 25.4576 77.4915 25.661 77.1186 25.9322C76.7458 26.2034 76.3729 26.4746 76.0678 26.7119C76 26.7797 75.9661 26.7797 75.8983 26.7797C75.8305 26.7797 75.8305 26.7119 75.7966 26.6441L75.4576 25.2881C75.0847 25.8983 74.678 26.3729 74.2034 26.7458C73.7288 27.1186 73.2542 27.3559 72.7458 27.4915C72.2034 27.6271 71.6949 27.6271 71.2203 27.4915C70.7119 27.3559 70.2712 27.1525 69.8644 26.8475C69.4576 26.5424 69.0847 26.1695 68.7797 25.6949C68.4746 25.2203 68.2712 24.7119 68.1017 24.2034C67.9322 23.5593 67.8983 22.9153 67.9661 22.2712C68.0678 21.6271 68.2373 21.017 68.5424 20.4746C68.8475 19.9322 69.2203 19.4576 69.6949 19.0508C70.1695 18.6441 70.7458 18.3729 71.3559 18.2034C71.6271 18.1356 71.9661 18.0678 72.3051 18.0678C72.6441 18.0678 73.0508 18.0678 73.5593 18.1695L72.6102 14.5763V14.5085ZM74.0339 20C73.9322 19.661 73.7966 19.3898 73.5593 19.1864C73.3559 18.9831 73.1186 18.8475 72.8475 18.7797C72.5763 18.7119 72.3051 18.678 72.0339 18.678C71.7627 18.678 71.4915 18.7119 71.2881 18.7797C70.9153 18.8814 70.5424 19.0508 70.2034 19.322C69.8644 19.5932 69.5932 19.8983 69.3898 20.3051C69.1864 20.7119 69.0508 21.1864 68.9831 21.6949C68.9153 22.2373 68.9831 22.8136 69.1525 23.4576C69.4237 24.5085 69.9322 25.322 70.6441 25.8644C71.3559 26.4068 72.2373 26.5424 73.2203 26.3051C73.3898 26.2712 73.5932 26.1695 73.8305 26.0339C74.0678 25.8983 74.3051 25.7288 74.5085 25.5593C74.7119 25.3898 74.8814 25.1864 75.017 24.9831C75.1525 24.7797 75.1864 24.5763 75.1525 24.4068L74 19.9661L74.0339 20Z" fill="var(--fill-0, white)"/>
<path id="Vector_9" d="M80.8814 26.3051C80.5424 26.339 80.2712 26.3051 80.0339 26.1017C79.7966 25.9322 79.661 25.661 79.6271 25.3559C79.5932 25.0508 79.6271 24.7797 79.8305 24.5424C80 24.3051 80.2712 24.1695 80.6102 24.1017C80.9492 24.0339 81.2203 24.1017 81.4915 24.3051C81.7288 24.4746 81.8983 24.7458 81.9322 25.0508C81.9661 25.3559 81.9322 25.661 81.6949 25.8983C81.4915 26.1356 81.2542 26.2712 80.9152 26.339L80.8814 26.3051Z" fill="var(--fill-0, white)"/>
<path id="Vector_10" d="M98.8814 18.7458L98.2034 22.8136C98.1356 23.2203 98.1017 23.5593 98.1017 23.7966C98.1017 24.0678 98.1356 24.2712 98.2373 24.4407C98.339 24.6102 98.5085 24.7458 98.7458 24.8475C98.983 24.9492 99.2881 25.0169 99.661 25.0847L99.5932 25.5593C99.3559 25.4915 99.0169 25.4237 98.5763 25.3559C98.1356 25.2881 97.6949 25.1864 97.1864 25.1186C96.7119 25.0508 96.2373 24.9492 95.7966 24.8814C95.3559 24.8136 95.017 24.7797 94.7797 24.7458L94.8475 24.3051C95.1864 24.3729 95.4915 24.4068 95.7288 24.3729C95.9661 24.339 96.1695 24.3051 96.3051 24.2034C96.4746 24.0678 96.5763 23.8983 96.678 23.6271C96.7797 23.3559 96.8475 23.0169 96.9492 22.5763L98.4407 13.5932C98.5085 13.2203 98.5424 12.9153 98.5085 12.678C98.5085 12.4407 98.4407 12.2373 98.3051 12.0678C98.2034 11.9322 98.0339 11.7966 97.7966 11.7288C97.5593 11.661 97.2881 11.5593 96.9492 11.4915L97.017 11.0169C97.322 11.0847 97.6949 11.1525 98.1695 11.2542C98.6441 11.322 99.1186 11.4237 99.6271 11.4915C100.136 11.5593 100.61 11.661 101.085 11.7288C101.559 11.7966 101.966 11.8644 102.305 11.8983C103.153 12.0339 103.797 12.2712 104.305 12.6102C104.814 12.9492 105.186 13.2881 105.458 13.6949C105.695 14.1017 105.864 14.5085 105.932 14.9153C106 15.322 106 15.6949 105.932 16.0339C105.864 16.4746 105.729 16.8814 105.492 17.2203C105.288 17.5593 105.017 17.8644 104.712 18.1017C104.407 18.3729 104.068 18.5763 103.695 18.7119C103.322 18.8814 102.949 18.9492 102.576 18.9831C102.746 19.4237 102.949 19.8983 103.186 20.4407C103.424 20.9492 103.661 21.4915 103.932 22C104.169 22.5085 104.441 23.0169 104.678 23.4576C104.915 23.8983 105.153 24.3051 105.322 24.6102C105.559 25.0169 105.831 25.3898 106.136 25.6949C106.441 26 106.847 26.2034 107.288 26.2712L107.22 26.7458C106.78 26.6441 106.339 26.5763 105.932 26.4746C105.492 26.4068 105.085 26.339 104.678 26.3051C104.407 25.7966 104.102 25.2203 103.831 24.6102C103.525 23.9661 103.22 23.3559 102.949 22.7119C102.644 22.0678 102.339 21.4237 102.068 20.7797C101.797 20.1695 101.525 19.5932 101.322 19.0847L98.8814 18.678V18.7458ZM98.9831 18.0678C99.1186 18.1356 99.3559 18.2034 99.661 18.2373C99.9661 18.3051 100.203 18.339 100.407 18.3729C101.085 18.4746 101.695 18.5085 102.169 18.3729C102.678 18.2712 103.085 18.1017 103.424 17.8644C103.763 17.6271 104.034 17.3559 104.203 17.0169C104.407 16.678 104.508 16.339 104.576 15.9661C104.644 15.5593 104.644 15.1525 104.576 14.7458C104.508 14.3729 104.373 14 104.136 13.6949C103.898 13.3898 103.559 13.1186 103.153 12.8814C102.712 12.6441 102.169 12.4746 101.525 12.3729C101.254 12.339 100.949 12.2712 100.678 12.2712C100.373 12.2712 100.169 12.2373 99.9661 12.2373L98.9831 18.1017V18.0678Z" fill="var(--fill-0, white)"/>
<path id="Vector_11" d="M110.712 22.4068C110.61 22.5763 110.542 22.7458 110.475 22.9492C110.407 23.1525 110.339 23.4237 110.237 23.7288C110 24.6441 110 25.4915 110.305 26.2712C110.576 27.0508 111.153 27.5932 112.034 27.8644C112.61 28.0678 113.153 28.1356 113.661 28.0339C114.169 27.9661 114.61 27.7966 115.017 27.5593L115.22 27.7966C114.678 28.2712 114.068 28.6102 113.39 28.8136C112.712 29.0169 112 28.9831 111.322 28.7458C110.814 28.5763 110.373 28.3051 110.034 27.9661C109.695 27.5932 109.39 27.1864 109.22 26.7119C109.017 26.2373 108.949 25.6949 108.915 25.1525C108.915 24.5763 109.017 24 109.22 23.3898C109.458 22.6441 109.797 22.0339 110.169 21.4915C110.542 20.9831 110.983 20.5763 111.424 20.2712C111.898 19.9661 112.373 19.7966 112.881 19.7288C113.39 19.661 113.898 19.7288 114.407 19.8983C114.746 20.0339 115.085 20.2034 115.39 20.4407C115.695 20.678 115.966 20.9492 116.169 21.2881C116.373 21.6271 116.475 22 116.542 22.4407C116.61 22.8814 116.542 23.3559 116.373 23.8644C116.339 24 116.271 24.1017 116.203 24.1695C116.136 24.2373 116.034 24.2373 115.898 24.2034L110.712 22.4407V22.4068ZM114.644 23.1186C114.847 23.1864 115.017 23.2203 115.119 23.1864C115.22 23.1864 115.322 23.0508 115.39 22.8814C115.458 22.678 115.492 22.4746 115.458 22.2373C115.458 22 115.39 21.7627 115.288 21.5254C115.186 21.2881 115.051 21.0847 114.847 20.8814C114.644 20.678 114.407 20.5424 114.102 20.4407C113.424 20.2034 112.814 20.2373 112.271 20.5085C111.729 20.7797 111.288 21.2203 110.915 21.8644L114.61 23.1525L114.644 23.1186Z" fill="var(--fill-0, white)"/>
<path id="Vector_12" d="M121.763 19.3898C121.898 19.0847 122 18.8475 122.034 18.678C122.102 18.4746 122.102 18.339 122.034 18.1695C122 18.0339 121.898 17.9322 121.763 17.8305C121.627 17.7288 121.424 17.6271 121.186 17.5254L121.356 17.1864C121.763 17.2881 122.136 17.3559 122.542 17.3559C122.949 17.3559 123.322 17.3559 123.695 17.2203L124 17.3559C123.831 17.661 123.661 17.9661 123.492 18.3051C123.322 18.6441 123.186 18.9492 123.051 19.2203L118.441 29.2881C118.237 29.7627 118.136 30.1356 118.203 30.4068C118.271 30.678 118.542 30.9153 119.051 31.1525L118.847 31.5593C118.61 31.4576 118.305 31.322 118 31.1525C117.695 31.017 117.39 30.8475 117.085 30.7119C116.78 30.5763 116.475 30.4407 116.169 30.3051C115.864 30.1695 115.593 30.0678 115.39 29.9661L115.593 29.5593C116.102 29.7966 116.475 29.8644 116.712 29.7627C116.949 29.661 117.186 29.3559 117.424 28.8136L121.763 19.3898Z" fill="var(--fill-0, white)"/>
<path id="Vector_13" d="M122.847 31.7627C122.576 32.2373 122.508 32.5763 122.576 32.7797C122.644 32.9831 122.949 33.2203 123.424 33.4915L123.186 33.8983C123.051 33.8305 122.881 33.7288 122.78 33.661C122.644 33.5932 122.508 33.5254 122.407 33.4237C122.271 33.3559 122.136 33.2881 122 33.1864C121.864 33.1186 121.729 33.0169 121.559 32.9492C121.39 32.8475 121.254 32.7797 121.119 32.7119C120.983 32.6441 120.847 32.5763 120.712 32.5085C120.576 32.4407 120.441 32.3729 120.305 32.2712C120.169 32.2034 120.034 32.1356 119.864 32.0339L120.102 31.6271C120.576 31.8983 120.915 32 121.153 31.9661C121.39 31.9322 121.627 31.661 121.864 31.1864L124.068 27.1864C124.237 26.8814 124.339 26.6441 124.407 26.4746C124.475 26.3051 124.508 26.1356 124.508 26C124.508 25.8644 124.441 25.7627 124.339 25.6271C124.237 25.5254 124.068 25.4237 123.831 25.2881L124.034 24.9492C124.407 25.0847 124.78 25.1864 125.119 25.2203C125.458 25.2881 125.831 25.2203 126.203 25.1525L126.508 25.322C126.305 25.5932 126.136 25.8983 125.932 26.2373C125.729 26.5763 125.593 26.8475 125.424 27.1186L122.881 31.7288L122.847 31.7627ZM127.051 21.0508C127.186 20.8475 127.356 20.678 127.593 20.6102C127.831 20.5424 128.068 20.5424 128.305 20.678C128.508 20.8136 128.678 20.9831 128.746 21.2542C128.814 21.4915 128.78 21.7288 128.678 21.9661C128.542 22.1695 128.373 22.339 128.136 22.4068C127.898 22.4746 127.661 22.4407 127.424 22.339C127.22 22.2034 127.051 22.0339 126.983 21.7966C126.915 21.5593 126.949 21.322 127.051 21.1186V21.0508Z" fill="var(--fill-0, white)"/>
<path id="Vector_14" d="M131.22 38.5085C130.847 38.5763 130.475 38.5763 130.102 38.5763C129.729 38.5763 129.424 38.4746 129.153 38.3051C128.915 38.1356 128.78 37.8983 128.814 37.5593C128.814 37.2203 128.983 36.8475 129.254 36.4068C128.61 36.5424 127.966 36.5763 127.322 36.4746C126.678 36.3729 126.136 36.1695 125.627 35.8305C125.186 35.5254 124.881 35.0847 124.78 34.5763C124.678 34.0678 124.78 33.5593 125.153 33.1186C125.424 32.7458 125.763 32.5085 126.169 32.4068C126.576 32.3051 127.051 32.2712 127.559 32.339C128.068 32.4068 128.644 32.5424 129.288 32.7119C129.932 32.9153 130.61 33.1186 131.356 33.3559L132.102 32.3051C132.407 31.8644 132.576 31.4237 132.576 30.9831C132.576 30.5424 132.271 30.1356 131.661 29.6949C131.22 29.3898 130.78 29.2542 130.271 29.2542C129.763 29.2542 129.39 29.4576 129.119 29.7966C128.949 30.0339 128.78 30.1695 128.61 30.2373C128.441 30.2712 128.271 30.2373 128.136 30.1695C128 30.0678 127.966 29.9661 127.966 29.8305C127.966 29.6949 128.034 29.5254 128.136 29.3559C128.339 29.0847 128.644 28.9153 129.085 28.8475C129.525 28.7797 130.136 28.7797 130.915 28.8814C131.39 28.9492 131.763 28.9831 132.034 29.0847C132.305 29.1525 132.576 29.2881 132.814 29.4576C133.288 29.7966 133.627 30.2373 133.763 30.7797C133.932 31.322 133.763 31.8644 133.39 32.4407L130.475 36.5763C130.068 37.1525 129.966 37.5593 130.169 37.7966C130.373 38.0678 130.746 38.1695 131.322 38.2034L131.186 38.5085H131.22ZM131.119 33.7288C129.763 33.2881 128.712 33.0169 127.966 32.9153C127.22 32.8136 126.678 32.9831 126.373 33.4237C126.034 33.8983 125.932 34.3051 126.068 34.6102C126.203 34.9492 126.475 35.2542 126.881 35.5593C127.254 35.8305 127.695 35.9661 128.169 36C128.644 36.0339 129.119 36 129.559 35.9322L131.119 33.7288Z" fill="var(--fill-0, white)"/>
<path id="Vector_15" d="M143.797 30.4746C143.525 30.678 143.288 30.9153 143.017 31.1864C142.746 31.4576 142.508 31.6949 142.305 31.8983L138.407 35.9661C138.678 35.9661 138.983 35.9661 139.322 36.0339C139.661 36.0678 139.966 36.1356 140.305 36.2034C140.644 36.2712 140.949 36.3729 141.22 36.4746C141.492 36.6102 141.729 36.7458 141.932 36.9153C142.305 37.2881 142.576 37.6949 142.712 38.1695C142.847 38.6441 142.915 39.1186 142.881 39.5932C142.847 40.1017 142.712 40.5763 142.475 41.0508C142.237 41.5254 141.966 41.9661 141.593 42.339C141.119 42.8475 140.576 43.2542 139.966 43.5593C139.356 43.8644 138.746 44.0339 138.136 44.1356C137.525 44.2034 136.915 44.1356 136.305 43.9661C135.695 43.7966 135.186 43.4576 134.712 43.0169C134.271 42.6102 133.932 42.1695 133.695 41.6949C133.458 41.2203 133.288 40.8136 133.186 40.5085L132.508 40.5763L132.373 40.2373C132.847 39.8644 133.288 39.4915 133.763 39.1186C134.237 38.7119 134.678 38.3051 135.085 37.8644L141.017 31.661C141.254 31.4237 141.39 31.2203 141.525 31.0847C141.627 30.9153 141.695 30.7797 141.695 30.6102C141.695 30.4746 141.661 30.339 141.559 30.2034C141.458 30.0678 141.322 29.8983 141.119 29.7288L141.39 29.4576C141.729 29.661 142.102 29.8644 142.475 30C142.847 30.1356 143.254 30.2373 143.627 30.2373L143.864 30.4746H143.797ZM134.847 39.7288C134.441 40.1356 134.237 40.6102 134.271 41.1186C134.271 41.6271 134.576 42.1695 135.119 42.7119C135.525 43.1186 135.966 43.3898 136.441 43.4915C136.915 43.6271 137.356 43.6271 137.797 43.5593C138.237 43.4915 138.678 43.322 139.085 43.0847C139.492 42.8475 139.831 42.5424 140.169 42.2373C140.983 41.3898 141.458 40.5085 141.627 39.5932C141.797 38.678 141.559 37.9322 140.915 37.322C140.576 37.0169 140.136 36.7797 139.559 36.678C138.983 36.5424 138.441 36.5085 137.966 36.5085L134.881 39.7288H134.847Z" fill="var(--fill-0, white)"/>
<path id="Vector_16" d="M149.153 40.0678C149.39 39.8644 149.593 39.6949 149.729 39.5254C149.864 39.3898 149.932 39.2203 149.966 39.0847C149.966 38.9492 149.966 38.8136 149.864 38.678C149.763 38.5424 149.661 38.3729 149.492 38.1695L149.763 37.9322C150.068 38.2034 150.407 38.4068 150.78 38.6102C151.153 38.8136 151.525 38.9153 151.898 38.9831L152.102 39.2542C151.831 39.4237 151.525 39.661 151.22 39.8644C150.915 40.1017 150.644 40.3051 150.441 40.5085L141.932 47.5932C141.525 47.9322 141.288 48.2373 141.254 48.5085C141.186 48.7797 141.356 49.1186 141.695 49.5593L141.322 49.8644C141.153 49.661 140.949 49.4237 140.746 49.1525C140.542 48.8814 140.305 48.6102 140.102 48.3729C139.864 48.1017 139.661 47.8305 139.458 47.5932C139.254 47.3559 139.051 47.1186 138.881 46.9492L139.254 46.6441C139.627 47.0847 139.932 47.2881 140.169 47.2881C140.441 47.2881 140.78 47.1186 141.22 46.7458L149.186 40.1017L149.153 40.0678Z" fill="var(--fill-0, white)"/>
<path id="Vector_17" d="M147.22 48.5085C147.051 48.5763 146.881 48.678 146.712 48.7797C146.542 48.8814 146.305 49.0508 146.068 49.2542C145.322 49.8305 144.847 50.5085 144.61 51.322C144.373 52.1356 144.508 52.8814 145.017 53.6271C145.356 54.1356 145.763 54.5085 146.203 54.7458C146.644 54.983 147.119 55.1186 147.593 55.1864V55.4915C146.881 55.5593 146.203 55.4576 145.525 55.1864C144.847 54.9153 144.305 54.5085 143.898 53.8983C143.593 53.4576 143.424 52.983 143.356 52.4746C143.288 51.9661 143.356 51.4915 143.458 50.983C143.593 50.4746 143.831 50 144.169 49.5593C144.508 49.1186 144.915 48.7119 145.458 48.339C146.102 47.8983 146.746 47.5932 147.356 47.4237C147.966 47.2542 148.576 47.1525 149.085 47.2203C149.627 47.2542 150.136 47.4237 150.576 47.661C151.017 47.9322 151.39 48.2712 151.695 48.7119C151.898 49.0169 152.068 49.3559 152.169 49.7288C152.271 50.1017 152.305 50.4746 152.271 50.8814C152.237 51.2881 152.102 51.661 151.864 52.0339C151.627 52.4068 151.322 52.7458 150.881 53.0508C150.746 53.1186 150.644 53.1864 150.576 53.1864C150.508 53.1864 150.407 53.1525 150.305 53.0169L147.22 48.4746V48.5085ZM149.966 51.4915C150.102 51.661 150.203 51.7966 150.305 51.8305C150.407 51.8644 150.542 51.8305 150.712 51.7288C150.881 51.6271 151.017 51.4576 151.153 51.2542C151.288 51.0508 151.39 50.8475 151.458 50.6102C151.525 50.3729 151.525 50.1017 151.458 49.8305C151.424 49.5593 151.322 49.2881 151.119 49.0169C150.712 48.4407 150.237 48.1017 149.627 47.9661C149.017 47.8644 148.407 47.9661 147.729 48.2373L149.932 51.4915H149.966Z" fill="var(--fill-0, white)"/>
<path id="Vector_18" d="M146.61 59.3559C146.441 59.0508 146.407 58.7797 146.508 58.4746C146.61 58.2034 146.78 57.9661 147.051 57.8305C147.322 57.6949 147.593 57.661 147.898 57.7288C148.203 57.7966 148.407 58 148.576 58.3051C148.746 58.6102 148.78 58.8814 148.678 59.1864C148.576 59.4915 148.407 59.6949 148.136 59.8644C147.864 60.0339 147.559 60.0339 147.288 59.9661C146.983 59.8644 146.78 59.661 146.61 59.3898V59.3559Z" fill="var(--fill-0, white)"/>
<path id="Vector_19" d="M154.136 68.339C153.424 68.2712 152.915 68.339 152.644 68.5763C152.373 68.8136 152.339 69.2881 152.576 70.1017L152.136 70.2373C151.966 69.6271 151.797 68.983 151.593 68.2712C151.39 67.5593 151.22 66.9153 151.051 66.339L151.559 66.2034C151.661 66.5424 151.763 66.7797 151.864 66.9831C151.966 67.1525 152.136 67.322 152.339 67.4237C152.508 67.5254 152.746 67.5932 153.017 67.6271C153.288 67.661 153.627 67.6949 154.034 67.7288L166.644 68.5763L166.746 68.9492L156.271 76.0678C155.932 76.3051 155.661 76.5085 155.458 76.7119C155.254 76.9153 155.119 77.1186 155.017 77.2881C154.915 77.4915 154.881 77.7288 154.847 77.9322C154.847 78.1695 154.847 78.4068 154.915 78.7119L154.475 78.8475C154.407 78.5424 154.305 78.2034 154.203 77.8305C154.102 77.4576 154 77.0508 153.898 76.678C153.797 76.2712 153.661 75.8983 153.559 75.4915C153.458 75.1186 153.356 74.7797 153.288 74.5085L153.729 74.3729C153.831 74.7458 153.932 75.0508 154.034 75.2542C154.136 75.4576 154.271 75.5593 154.441 75.5932C154.61 75.5932 154.814 75.5932 155.051 75.4576C155.288 75.322 155.593 75.1525 155.966 74.9153L158.373 73.2542L157.051 68.5085L154.102 68.3051L154.136 68.339ZM158.949 72.9153L164.678 69.0508L157.763 68.6102L158.949 72.9153Z" fill="var(--fill-0, white)"/>
<path id="Vector_20" d="M163.492 83.6949L162.678 83.7966L162.373 81.2881L156.407 82.0339C155.864 82.1017 155.525 82.2712 155.424 82.5763C155.322 82.8814 155.288 83.3559 155.39 84L154.915 84.0678C154.915 83.7627 154.847 83.3898 154.814 82.9831C154.78 82.5763 154.712 82.1695 154.678 81.7627C154.644 81.3559 154.576 80.9492 154.508 80.5763C154.441 80.1695 154.407 79.8305 154.339 79.5593L154.814 79.4915C154.881 80.0339 155.017 80.4407 155.254 80.678C155.492 80.9153 155.831 80.9831 156.305 80.9492L162.237 80.2034L162.068 78.8136H162.441C162.508 79.0847 162.644 79.3898 162.847 79.661C163.051 79.9322 163.356 80.0678 163.797 80C164.136 79.9661 164.508 79.9322 164.949 79.9661C165.39 79.9661 165.797 80.0339 166.237 80.1017C166.644 80.1695 167.085 80.2712 167.458 80.4407C167.864 80.5763 168.203 80.7797 168.475 80.983C169.017 81.3898 169.424 81.7966 169.661 82.2034C169.898 82.6102 170.034 82.8814 170.068 83.0169C170.102 83.2881 170.068 83.5254 169.966 83.6949C169.864 83.8644 169.661 83.9661 169.424 84C169.186 84 169.017 83.9661 168.881 83.7966C168.746 83.6271 168.678 83.4915 168.644 83.3559C168.644 83.2542 168.644 83.1864 168.644 83.1186C168.644 83.0508 168.644 82.9831 168.678 82.8814C168.678 82.8136 168.678 82.7119 168.712 82.5763C168.712 82.4407 168.712 82.3051 168.712 82.1017C168.678 81.8305 168.576 81.5932 168.373 81.4237C168.203 81.2542 167.966 81.1186 167.729 81.017C167.492 80.9153 167.22 80.8475 166.949 80.8475C166.678 80.8475 166.441 80.8475 166.271 80.8475L163.186 81.2203L163.492 83.7288V83.6949Z" fill="var(--fill-0, white)"/>
<path id="Vector_21" d="M163.729 90.4407H162.915L162.847 87.9322L156.847 88.1356C156.305 88.1356 155.966 88.3051 155.831 88.6102C155.695 88.9153 155.627 89.3559 155.661 90.0339H155.186C155.186 89.7288 155.186 89.3559 155.186 88.9492C155.186 88.5424 155.186 88.1356 155.186 87.7288C155.186 87.322 155.186 86.9153 155.153 86.5085C155.153 86.1017 155.119 85.7627 155.085 85.4576H155.559C155.559 86 155.695 86.4068 155.898 86.6441C156.102 86.8814 156.441 87.017 156.915 86.9831L162.881 86.7797V85.3559C162.847 85.3559 163.22 85.3559 163.22 85.3559C163.254 85.661 163.39 86 163.559 86.3051C163.729 86.6102 164.034 86.7458 164.475 86.7458C164.814 86.7458 165.186 86.7458 165.627 86.8136C166.034 86.8475 166.475 86.9492 166.915 87.0847C167.322 87.1864 167.729 87.3559 168.102 87.5254C168.475 87.6949 168.814 87.9322 169.051 88.1695C169.559 88.6441 169.932 89.0847 170.136 89.4915C170.339 89.8983 170.441 90.2034 170.475 90.339C170.475 90.6102 170.441 90.8475 170.305 91.0169C170.169 91.1864 170 91.2542 169.729 91.2881C169.492 91.2881 169.322 91.2203 169.22 91.0509C169.119 90.8814 169.051 90.7119 169.051 90.5763C169.051 90.4746 169.051 90.4068 169.051 90.339C169.051 90.2712 169.085 90.2034 169.119 90.1017C169.119 90.0339 169.153 89.9322 169.186 89.7966C169.186 89.661 169.186 89.5254 169.186 89.322C169.186 89.0508 169.085 88.8136 168.915 88.6102C168.746 88.4068 168.542 88.2712 168.305 88.1356C168.068 88.0339 167.831 87.9322 167.559 87.8983C167.288 87.8644 167.051 87.8305 166.881 87.8305L163.763 87.9322L163.831 90.4746L163.729 90.4407Z" fill="var(--fill-0, white)"/>
<path id="Vector_22" d="M158.847 100.847C158.203 100.78 157.593 100.61 157.051 100.339C156.508 100.068 156.034 99.6949 155.661 99.2542C155.254 98.8136 154.983 98.339 154.78 97.7966C154.576 97.2542 154.508 96.678 154.576 96.1017C154.644 95.4915 154.78 94.9152 155.051 94.3729C155.322 93.8305 155.661 93.3898 156.102 92.983C156.542 92.6102 157.051 92.3051 157.661 92.1017C158.271 91.8983 158.915 91.8305 159.627 91.8983C160.271 91.9661 160.881 92.1356 161.424 92.3729C161.966 92.6441 162.441 92.983 162.847 93.4237C163.22 93.8644 163.525 94.339 163.729 94.9152C163.932 95.4576 164 96.0678 163.966 96.678C163.898 97.322 163.729 97.8983 163.492 98.4407C163.22 98.983 162.881 99.4237 162.441 99.7966C162 100.169 161.492 100.441 160.915 100.644C160.305 100.847 159.661 100.881 158.949 100.847H158.847ZM158.78 99.4576C159.22 99.4915 159.729 99.4576 160.237 99.4237C160.746 99.3559 161.254 99.2203 161.695 99.0169C162.136 98.8136 162.542 98.5085 162.847 98.1356C163.153 97.7627 163.356 97.2881 163.39 96.7119C163.424 96.1695 163.39 95.661 163.153 95.2542C162.949 94.8475 162.644 94.5085 162.305 94.2373C161.932 93.9661 161.525 93.7627 161.051 93.5932C160.576 93.4576 160.136 93.3559 159.661 93.322C159.22 93.2881 158.746 93.322 158.237 93.3559C157.729 93.4237 157.254 93.5593 156.78 93.7627C156.339 93.9661 155.932 94.2712 155.593 94.6441C155.254 95.0169 155.085 95.4915 155.017 96.1017C154.983 96.6441 155.017 97.1525 155.254 97.5593C155.458 97.9661 155.763 98.3051 156.136 98.5763C156.508 98.8474 156.915 99.0847 157.39 99.2203C157.864 99.3559 158.305 99.4576 158.746 99.4915L158.78 99.4576Z" fill="var(--fill-0, white)"/>
<path id="Vector_23" d="M160.508 105.525C160.712 105.763 160.915 106.034 161.085 106.305C161.254 106.576 161.424 106.881 161.559 107.153C161.695 107.424 161.797 107.695 161.831 107.966C161.898 108.237 161.898 108.441 161.831 108.644C161.763 108.949 161.627 109.186 161.424 109.356C161.22 109.525 160.983 109.593 160.712 109.525C160.407 109.458 160.237 109.322 160.102 109.119C160 108.915 159.966 108.712 160 108.576C160 108.441 160.068 108.305 160.136 108.237C160.203 108.169 160.271 108.102 160.339 108.034C160.407 107.966 160.508 107.864 160.576 107.797C160.644 107.695 160.712 107.559 160.746 107.39C160.746 107.288 160.746 107.119 160.678 106.915C160.61 106.712 160.508 106.475 160.373 106.271C160.237 106.034 160.102 105.831 159.898 105.661C159.695 105.492 159.492 105.356 159.254 105.322L155.424 104.441C155.119 104.373 154.881 104.339 154.678 104.339C154.475 104.339 154.305 104.407 154.203 104.508C154.102 104.61 153.966 104.814 153.864 105.085C153.763 105.356 153.661 105.695 153.559 106.136L153.119 106.034C153.186 105.763 153.288 105.424 153.39 105.017C153.492 104.61 153.593 104.169 153.695 103.763C153.797 103.322 153.898 102.915 153.966 102.475C154.068 102.068 154.136 101.729 154.169 101.424L154.61 101.525C154.475 102.136 154.475 102.542 154.576 102.78C154.678 102.983 155.051 103.186 155.661 103.322L159.932 104.305C160.271 104.373 160.508 104.441 160.712 104.441C160.915 104.441 161.085 104.441 161.186 104.407C161.322 104.373 161.424 104.271 161.492 104.136C161.559 104 161.627 103.797 161.695 103.559L162.068 103.661C162.068 104.068 162.068 104.441 162.068 104.78C162.102 105.119 162.237 105.458 162.441 105.797L162.373 106.136C162.068 106.034 161.729 105.932 161.356 105.831C161.017 105.729 160.678 105.661 160.407 105.593L160.508 105.525Z" fill="var(--fill-0, white)"/>
<path id="Vector_24" d="M161.763 119.186C162.068 119.288 162.305 119.39 162.508 119.424C162.712 119.458 162.881 119.424 163.017 119.424C163.153 119.39 163.254 119.288 163.322 119.119C163.39 118.983 163.492 118.78 163.593 118.542L163.932 118.678C163.864 119.085 163.831 119.492 163.864 119.898C163.864 120.305 163.966 120.678 164.102 121.051L164 121.356C163.695 121.22 163.39 121.051 163.017 120.915C162.678 120.78 162.339 120.644 162.068 120.542L151.492 116.61C151.085 116.475 150.814 116.475 150.678 116.644C150.542 116.814 150.373 117.119 150.237 117.559L149.898 117.424C149.898 117.186 149.898 116.814 149.898 116.339C149.898 115.864 149.898 115.424 149.864 115.017C149.864 114.949 149.864 114.881 149.898 114.847C149.932 114.847 150 114.847 150.068 114.847L151.39 115.322C151.119 114.678 150.949 114.068 150.915 113.458C150.881 112.881 150.915 112.339 151.119 111.831C151.322 111.322 151.593 110.881 151.966 110.542C152.339 110.203 152.78 109.966 153.288 109.797C153.763 109.627 154.305 109.559 154.847 109.593C155.39 109.593 155.932 109.729 156.475 109.932C157.119 110.169 157.661 110.508 158.136 110.949C158.61 111.39 158.983 111.898 159.288 112.475C159.559 113.017 159.729 113.627 159.797 114.237C159.864 114.881 159.797 115.492 159.559 116.102C159.458 116.373 159.322 116.678 159.153 116.949C158.983 117.22 158.712 117.559 158.339 117.898L161.831 119.186H161.763ZM156.441 117.22C156.78 117.356 157.085 117.39 157.356 117.322C157.627 117.254 157.898 117.153 158.102 116.983C158.305 116.814 158.508 116.61 158.644 116.373C158.814 116.136 158.915 115.898 158.983 115.695C159.119 115.322 159.186 114.915 159.153 114.508C159.153 114.068 159.017 113.661 158.814 113.288C158.61 112.881 158.305 112.508 157.898 112.169C157.492 111.831 156.983 111.525 156.339 111.288C155.322 110.915 154.373 110.847 153.525 111.153C152.678 111.424 152.068 112.068 151.695 113.017C151.627 113.153 151.593 113.39 151.559 113.661C151.559 113.932 151.559 114.203 151.559 114.508C151.559 114.78 151.661 115.051 151.729 115.254C151.831 115.492 151.932 115.627 152.136 115.695L156.407 117.288L156.441 117.22Z" fill="var(--fill-0, white)"/>
<path id="Vector_25" d="M145.661 125.424C145.559 125.051 145.492 124.678 145.458 124.339C145.424 123.966 145.458 123.661 145.627 123.39C145.763 123.119 146 122.983 146.339 122.949C146.678 122.949 147.051 123.017 147.525 123.254C147.322 122.61 147.22 122 147.254 121.356C147.254 120.712 147.424 120.136 147.729 119.627C148 119.153 148.373 118.814 148.881 118.644C149.39 118.475 149.864 118.542 150.339 118.847C150.746 119.085 151.017 119.39 151.153 119.797C151.322 120.203 151.39 120.644 151.39 121.186C151.39 121.695 151.322 122.305 151.186 122.949C151.051 123.593 150.915 124.305 150.78 125.085L151.898 125.695C152.373 125.966 152.814 126.068 153.254 126C153.695 125.932 154.068 125.593 154.441 124.949C154.678 124.508 154.78 124 154.712 123.525C154.644 123.017 154.407 122.678 154.034 122.441C153.763 122.305 153.627 122.136 153.559 121.966C153.492 121.797 153.492 121.627 153.559 121.492C153.627 121.356 153.729 121.288 153.898 121.288C154.034 121.288 154.203 121.288 154.373 121.424C154.678 121.593 154.881 121.864 154.983 122.305C155.085 122.746 155.153 123.356 155.119 124.136C155.119 124.61 155.119 124.983 155.051 125.254C155.017 125.525 154.915 125.797 154.78 126.068C154.508 126.576 154.068 126.949 153.559 127.153C153.017 127.356 152.475 127.288 151.864 126.983L147.424 124.542C146.814 124.203 146.407 124.136 146.169 124.373C145.932 124.576 145.831 124.983 145.898 125.559L145.593 125.458L145.661 125.424ZM150.373 124.814C150.678 123.424 150.847 122.339 150.847 121.593C150.847 120.847 150.644 120.305 150.169 120.068C149.661 119.797 149.254 119.729 148.949 119.898C148.644 120.068 148.339 120.373 148.102 120.814C147.864 121.22 147.763 121.661 147.797 122.136C147.797 122.61 147.898 123.085 148.034 123.525L150.407 124.847L150.373 124.814Z" fill="var(--fill-0, white)"/>
<path id="Vector_26" d="M154.983 137.051C154.746 136.814 154.475 136.576 154.169 136.339C153.864 136.102 153.627 135.898 153.39 135.695L148.915 132.271C148.915 132.542 148.949 132.847 148.915 133.186C148.915 133.525 148.915 133.864 148.847 134.169C148.814 134.508 148.746 134.814 148.678 135.119C148.576 135.424 148.475 135.661 148.305 135.864C148 136.271 147.593 136.576 147.153 136.78C146.712 136.983 146.237 137.085 145.763 137.085C145.254 137.085 144.78 137.017 144.271 136.847C143.763 136.678 143.322 136.441 142.881 136.102C142.305 135.661 141.864 135.186 141.492 134.61C141.119 134.034 140.881 133.458 140.746 132.847C140.61 132.237 140.61 131.627 140.746 131.017C140.847 130.407 141.119 129.831 141.525 129.322C141.898 128.847 142.305 128.475 142.746 128.169C143.186 127.864 143.559 127.661 143.864 127.559L143.729 126.881L144.034 126.712C144.441 127.119 144.881 127.559 145.322 127.966C145.763 128.373 146.237 128.78 146.712 129.153L153.525 134.373C153.797 134.576 154 134.712 154.169 134.814C154.339 134.915 154.508 134.949 154.644 134.949C154.78 134.949 154.915 134.881 155.017 134.746C155.119 134.61 155.288 134.475 155.424 134.271L155.729 134.508C155.559 134.881 155.39 135.254 155.288 135.627C155.186 136.034 155.153 136.407 155.186 136.78L154.983 137.051ZM144.847 129.186C144.373 128.847 143.898 128.678 143.39 128.746C142.881 128.814 142.373 129.153 141.898 129.763C141.559 130.237 141.322 130.678 141.254 131.153C141.186 131.627 141.22 132.068 141.322 132.508C141.458 132.949 141.661 133.356 141.932 133.729C142.203 134.102 142.542 134.441 142.915 134.712C143.831 135.424 144.78 135.797 145.695 135.864C146.61 135.932 147.356 135.593 147.898 134.915C148.169 134.542 148.339 134.068 148.407 133.492C148.475 132.915 148.475 132.373 148.407 131.898L144.881 129.186H144.847Z" fill="var(--fill-0, white)"/>
<path id="Vector_27" d="M146 143.424C146.237 143.661 146.441 143.831 146.576 143.932C146.746 144.034 146.881 144.102 147.051 144.102C147.186 144.102 147.322 144.068 147.458 143.966C147.593 143.864 147.763 143.729 147.932 143.525L148.203 143.797C147.966 144.136 147.797 144.475 147.627 144.881C147.492 145.254 147.39 145.627 147.39 146.034L147.153 146.271C146.949 146 146.712 145.763 146.441 145.458C146.169 145.153 145.932 144.949 145.729 144.746L137.763 137.051C137.39 136.678 137.051 136.508 136.78 136.475C136.508 136.475 136.169 136.644 135.797 137.017L135.458 136.678C135.661 136.475 135.864 136.271 136.102 136.034C136.339 135.797 136.576 135.559 136.814 135.322C137.051 135.085 137.288 134.814 137.525 134.61C137.763 134.407 137.966 134.17 138.102 133.966L138.441 134.305C138.068 134.712 137.864 135.017 137.898 135.288C137.898 135.525 138.136 135.864 138.542 136.271L146 143.492V143.424Z" fill="var(--fill-0, white)"/>
<path id="Vector_28" d="M137.39 142.407C137.288 142.237 137.186 142.068 137.051 141.932C136.915 141.797 136.746 141.559 136.508 141.322C135.864 140.644 135.119 140.237 134.305 140.068C133.492 139.898 132.746 140.136 132.068 140.712C131.593 141.119 131.254 141.559 131.085 142.034C130.915 142.508 130.814 142.983 130.814 143.458H130.508C130.373 142.814 130.407 142.102 130.576 141.39C130.746 140.678 131.119 140.102 131.695 139.627C132.102 139.288 132.542 139.051 133.051 138.915C133.525 138.78 134.034 138.78 134.542 138.847C135.051 138.915 135.559 139.119 136.034 139.39C136.508 139.661 136.983 140.068 137.39 140.542C137.898 141.153 138.271 141.729 138.508 142.339C138.746 142.949 138.881 143.525 138.915 144.034C138.915 144.576 138.847 145.119 138.61 145.559C138.373 146 138.102 146.441 137.695 146.78C137.424 147.017 137.085 147.22 136.712 147.356C136.339 147.492 135.966 147.559 135.593 147.593C135.186 147.593 134.814 147.492 134.407 147.322C134 147.153 133.627 146.847 133.288 146.441C133.186 146.339 133.153 146.237 133.119 146.169C133.119 146.102 133.119 146 133.254 145.898L137.424 142.339L137.39 142.407ZM134.746 145.458C134.576 145.593 134.475 145.729 134.441 145.864C134.441 145.966 134.441 146.102 134.576 146.237C134.712 146.373 134.881 146.508 135.085 146.644C135.288 146.746 135.525 146.814 135.763 146.881C136 146.881 136.271 146.881 136.542 146.814C136.814 146.746 137.085 146.61 137.322 146.407C137.864 145.966 138.136 145.424 138.203 144.814C138.271 144.203 138.102 143.593 137.729 142.949L134.746 145.492V145.458Z" fill="var(--fill-0, white)"/>
<path id="Vector_29" d="M126.576 142.949C126.847 142.746 127.153 142.678 127.424 142.746C127.729 142.814 127.966 142.949 128.136 143.22C128.305 143.492 128.373 143.763 128.339 144.034C128.305 144.339 128.136 144.576 127.864 144.78C127.593 144.983 127.288 145.051 126.983 144.983C126.678 144.915 126.441 144.78 126.271 144.508C126.102 144.237 126.034 143.966 126.102 143.661C126.169 143.356 126.339 143.119 126.61 142.915L126.576 142.949Z" fill="var(--fill-0, white)"/>
<path id="Vector_30" d="M120.78 151.22L120.305 151.424C120.068 151.119 119.831 150.814 119.593 150.542C119.356 150.271 119.085 150.034 118.78 149.864C118.475 149.695 118.136 149.593 117.763 149.559C117.39 149.559 116.983 149.627 116.508 149.831C115.627 150.203 115.017 150.746 114.678 151.458C114.339 152.169 114.305 152.881 114.61 153.593C114.78 154 115.017 154.339 115.288 154.576C115.559 154.814 115.898 155.017 116.237 155.153C116.576 155.288 116.983 155.39 117.39 155.424C117.797 155.492 118.203 155.525 118.644 155.559C119.085 155.559 119.525 155.627 120 155.695C120.475 155.763 120.881 155.898 121.322 156.034C121.729 156.203 122.102 156.441 122.441 156.746C122.78 157.051 123.051 157.424 123.254 157.898C123.525 158.508 123.661 159.051 123.661 159.593C123.661 160.136 123.559 160.61 123.322 161.017C123.119 161.458 122.814 161.864 122.407 162.203C122 162.542 121.559 162.814 121.017 163.051C120.847 163.119 120.678 163.186 120.508 163.254C120.339 163.322 120.169 163.356 120 163.424C119.831 163.458 119.661 163.525 119.492 163.559C119.322 163.593 119.119 163.661 118.915 163.729L117.593 161.492L118.034 161.288C118.441 161.932 118.881 162.339 119.288 162.576C119.729 162.78 120.305 162.746 121.017 162.441C121.898 162.068 122.475 161.525 122.712 160.881C122.949 160.203 122.915 159.559 122.644 158.915C122.475 158.508 122.203 158.169 121.898 157.932C121.593 157.695 121.22 157.492 120.814 157.356C120.407 157.22 119.966 157.119 119.525 157.085C119.085 157.051 118.61 157.017 118.169 156.983C117.729 156.949 117.288 156.881 116.847 156.847C116.407 156.78 116.034 156.678 115.661 156.542C115.288 156.373 114.949 156.169 114.61 155.898C114.305 155.627 114.034 155.254 113.864 154.814C113.593 154.203 113.492 153.593 113.525 153.051C113.559 152.475 113.729 151.966 113.966 151.458C114.237 150.983 114.576 150.542 115.017 150.169C115.458 149.797 115.898 149.492 116.407 149.288C116.881 149.085 117.356 148.949 117.831 148.847C118.305 148.746 118.78 148.712 119.186 148.712L120.78 151.288V151.22Z" fill="var(--fill-0, white)"/>
<path id="Vector_31" d="M111.559 157.322C111.559 157.119 111.492 156.949 111.458 156.746C111.39 156.542 111.322 156.271 111.186 155.966C110.881 155.085 110.373 154.407 109.695 153.932C109.017 153.458 108.237 153.356 107.39 153.593C106.78 153.763 106.305 154.034 105.932 154.373C105.559 154.712 105.288 155.119 105.085 155.559L104.78 155.458C104.949 154.78 105.254 154.136 105.695 153.593C106.136 153.017 106.712 152.644 107.424 152.441C107.932 152.305 108.441 152.271 108.949 152.373C109.458 152.475 109.898 152.644 110.339 152.949C110.78 153.254 111.153 153.627 111.492 154.068C111.831 154.542 112.068 155.051 112.237 155.661C112.441 156.407 112.542 157.119 112.508 157.763C112.508 158.407 112.373 158.983 112.169 159.492C111.966 160 111.661 160.441 111.254 160.78C110.881 161.119 110.407 161.356 109.898 161.525C109.525 161.627 109.153 161.661 108.78 161.661C108.373 161.661 108 161.559 107.661 161.39C107.288 161.22 106.983 160.983 106.712 160.644C106.441 160.305 106.203 159.898 106.034 159.39C106 159.254 105.966 159.153 106 159.051C106 158.983 106.102 158.915 106.237 158.847L111.525 157.356L111.559 157.322ZM107.898 158.983C107.695 159.051 107.525 159.119 107.458 159.22C107.39 159.322 107.356 159.458 107.424 159.627C107.492 159.831 107.593 160 107.729 160.203C107.864 160.407 108.068 160.542 108.271 160.678C108.475 160.814 108.746 160.915 109.017 160.949C109.288 161.017 109.593 160.949 109.898 160.881C110.576 160.678 111.051 160.305 111.356 159.797C111.661 159.288 111.763 158.644 111.695 157.898L107.932 158.983H107.898Z" fill="var(--fill-0, white)"/>
<path id="Vector_32" d="M96.2034 156.712C96.6102 156.034 97.0847 155.492 97.661 154.983C98.2373 154.508 98.8814 154.203 99.5593 154.102C100.034 154.034 100.542 154.102 101.017 154.237C101.492 154.373 101.932 154.644 102.339 154.983C102.746 155.322 103.085 155.695 103.356 156.169C103.627 156.644 103.797 157.153 103.898 157.661C104 158.373 104 159.051 103.864 159.729C103.729 160.407 103.492 160.983 103.119 161.525C102.78 162.034 102.339 162.475 101.797 162.847C101.254 163.186 100.678 163.424 100 163.525C99.7627 163.559 99.4915 163.559 99.2203 163.559C98.9153 163.559 98.6441 163.525 98.4068 163.424C98.1356 163.356 97.9322 163.254 97.7288 163.119C97.5254 162.983 97.4237 162.78 97.3898 162.542C97.3898 162.305 97.3898 162.136 97.4576 161.966C97.5254 161.797 97.6271 161.729 97.7627 161.695C97.8644 161.695 98 161.695 98.1356 161.763C98.2712 161.831 98.4407 162 98.678 162.271C98.8475 162.475 99.0847 162.644 99.3898 162.746C99.6949 162.847 100.136 162.881 100.678 162.78C101.153 162.712 101.559 162.508 101.898 162.237C102.237 161.932 102.475 161.593 102.644 161.186C102.814 160.78 102.949 160.373 102.983 159.932C103.051 159.492 103.017 159.085 102.983 158.712C102.915 158.203 102.78 157.695 102.576 157.254C102.373 156.78 102.102 156.407 101.763 156.102C101.424 155.763 101.017 155.525 100.576 155.39C100.102 155.254 99.5932 155.22 99.0169 155.288C98.4407 155.356 97.9661 155.559 97.5593 155.864C97.1525 156.169 96.8136 156.475 96.5424 156.814L96.2712 156.644L96.2034 156.712Z" fill="var(--fill-0, white)"/>
<path id="Vector_33" d="M88.2034 156.644C88.7797 156.136 89.3898 155.729 90.0339 155.356C90.678 154.983 91.2881 154.78 91.9322 154.78C92.1695 154.78 92.4068 154.78 92.6441 154.881C92.8814 154.949 93.0847 155.085 93.2881 155.288C93.4915 155.458 93.6271 155.695 93.7627 156C93.8983 156.305 93.9661 156.644 93.9661 157.085L94.0339 162.203C94.0339 162.61 94.1356 162.915 94.3051 163.051C94.4746 163.186 94.7797 163.254 95.2542 163.288V163.627C95.0847 163.627 94.9153 163.627 94.7458 163.627C94.5763 163.627 94.3729 163.627 94.2034 163.661C94 163.661 93.7966 163.695 93.5932 163.729C93.3898 163.729 93.1525 163.763 92.8814 163.797C92.8814 163.559 92.8814 163.254 92.8814 162.949C92.8814 162.61 92.8814 162.373 92.8814 162.203L92.8136 158.068C92.8136 157.085 92.6441 156.475 92.4068 156.169C92.1356 155.864 91.7288 155.729 91.1864 155.729C90.7119 155.729 90.2034 155.864 89.661 156.136C89.1186 156.407 88.6102 156.746 88.2034 157.153L88.2712 162.305C88.2712 162.712 88.4068 163.017 88.6441 163.153C88.8814 163.288 89.2203 163.356 89.6949 163.39V163.729C89.5254 163.729 89.3559 163.729 89.1525 163.729C88.9492 163.729 88.7458 163.729 88.5424 163.763C88.339 163.763 88.1017 163.797 87.8644 163.831C87.6271 163.831 87.3898 163.864 87.1186 163.898C87.1186 163.661 87.1186 163.356 87.1186 163.051C87.1186 162.746 87.1186 162.475 87.1186 162.305L87.017 156.508C87.017 156.102 86.9153 155.864 86.7119 155.797C86.5085 155.729 86.1695 155.695 85.6949 155.763V155.424C85.7966 155.424 85.9661 155.356 86.1356 155.322C86.3051 155.288 86.5085 155.22 86.7119 155.153C86.9153 155.085 87.1186 155.051 87.322 154.983C87.5254 154.915 87.7288 154.881 87.8983 154.814C87.9661 154.814 88.0339 154.814 88.0678 154.814C88.1017 154.814 88.1356 154.881 88.1356 154.949V156.61L88.2034 156.644Z" fill="var(--fill-0, white)"/>
<path id="Vector_34" d="M81.5254 161.661C81.322 161.898 81.0847 162.102 80.8136 162.305C80.5424 162.508 80.3051 162.712 80.0339 162.881C79.7627 163.051 79.4915 163.153 79.2542 163.254C79.0169 163.356 78.7797 163.356 78.5763 163.356C78.2712 163.322 78.0339 163.22 77.8305 163.017C77.6271 162.847 77.5593 162.61 77.5932 162.339C77.6271 162.034 77.7627 161.831 77.9322 161.695C78.1356 161.559 78.3051 161.492 78.4746 161.525C78.6102 161.525 78.7458 161.593 78.8136 161.627C78.8814 161.695 78.983 161.729 79.0508 161.831C79.1186 161.898 79.2203 161.966 79.322 162.034C79.4237 162.102 79.5593 162.136 79.7288 162.169C79.8305 162.169 80 162.169 80.2034 162.068C80.4068 161.966 80.6102 161.864 80.8136 161.729C81.0169 161.593 81.2203 161.39 81.3898 161.186C81.5593 160.983 81.661 160.746 81.6949 160.508L82.1695 156.61C82.2034 156.305 82.2034 156.068 82.1695 155.864C82.1695 155.661 82.0678 155.525 81.9322 155.39C81.7966 155.288 81.5932 155.186 81.322 155.119C81.0508 155.051 80.7119 154.983 80.2373 154.915L80.3051 154.441C80.5763 154.475 80.9492 154.542 81.3559 154.61C81.7627 154.678 82.2034 154.712 82.6441 154.78C83.0847 154.847 83.5254 154.881 83.9322 154.915C84.339 154.949 84.7119 154.983 84.983 155.017L84.9153 155.492C84.2712 155.424 83.8644 155.458 83.661 155.593C83.4576 155.729 83.322 156.102 83.2542 156.746L82.7119 161.085C82.678 161.424 82.6441 161.695 82.6441 161.898C82.6441 162.102 82.6441 162.271 82.7458 162.373C82.8475 162.475 82.9153 162.576 83.0508 162.644C83.1864 162.712 83.3898 162.746 83.661 162.78V163.153C83.2203 163.153 82.8475 163.22 82.5085 163.288C82.1695 163.356 81.8305 163.525 81.5254 163.763H81.1864C81.2542 163.39 81.322 163.051 81.3898 162.712C81.4237 162.339 81.4915 162.034 81.5254 161.729V161.661Z" fill="var(--fill-0, white)"/>
<path id="Vector_35" d="M75.4237 159.153C75.4915 158.983 75.5593 158.78 75.6271 158.576C75.661 158.373 75.7288 158.102 75.7966 157.763C75.9661 156.847 75.8644 156 75.5254 155.254C75.1864 154.508 74.5424 154.034 73.661 153.831C73.0509 153.695 72.5085 153.661 72 153.831C71.4915 153.966 71.0509 154.169 70.678 154.441L70.4746 154.203C70.9492 153.695 71.5254 153.288 72.2034 153.017C72.8814 152.746 73.5593 152.712 74.2712 152.881C74.7797 153.017 75.2542 153.22 75.6271 153.559C76 153.898 76.339 154.271 76.5424 154.746C76.7797 155.22 76.9153 155.729 76.9831 156.271C77.0509 156.814 76.9831 157.424 76.8475 158.034C76.678 158.78 76.4068 159.458 76.0678 160C75.7288 160.542 75.3559 160.983 74.9153 161.322C74.4746 161.661 74 161.898 73.4915 162C72.9831 162.102 72.4746 162.102 71.9661 162C71.5932 161.898 71.2542 161.763 70.9153 161.559C70.5763 161.356 70.3051 161.085 70.0678 160.78C69.8305 160.441 69.6949 160.068 69.5932 159.661C69.4915 159.254 69.5254 158.78 69.6271 158.237C69.661 158.102 69.6949 158 69.7627 157.932C69.8305 157.864 69.9322 157.864 70.0678 157.864L75.3898 159.153H75.4237ZM71.3898 158.814C71.1864 158.746 71.017 158.746 70.8814 158.814C70.7797 158.847 70.678 158.983 70.6441 159.153C70.6102 159.356 70.5763 159.559 70.6441 159.797C70.678 160.034 70.7458 160.271 70.8814 160.475C71.017 160.712 71.1864 160.881 71.3898 161.085C71.5932 161.254 71.8644 161.39 72.1695 161.458C72.8475 161.627 73.4576 161.559 73.9661 161.22C74.4746 160.881 74.8814 160.407 75.1864 159.763L71.3898 158.814Z" fill="var(--fill-0, white)"/>
<path id="Vector_36" d="M68.6102 150.712C68.9153 150.814 69.1525 151.017 69.2881 151.288C69.4237 151.559 69.4237 151.831 69.2881 152.136C69.1864 152.441 68.9831 152.644 68.7119 152.78C68.4407 152.915 68.1356 152.915 67.8305 152.78C67.5254 152.678 67.2881 152.475 67.1525 152.203C67.017 151.932 66.9831 151.627 67.0847 151.356C67.1864 151.051 67.3898 150.847 67.661 150.712C67.9322 150.576 68.2373 150.576 68.5424 150.712H68.6102Z" fill="var(--fill-0, white)"/>
<path id="Vector_37" d="M56.6102 148.847C56.8475 148.475 57.0169 148.136 57.0847 147.898C57.1864 147.661 57.1864 147.424 57.1525 147.22C57.1186 147.017 56.9831 146.847 56.8136 146.678C56.6441 146.508 56.3729 146.339 56.0678 146.136L56.3051 145.729C56.6102 145.898 56.9153 146.102 57.2881 146.339C57.661 146.576 58 146.78 58.4068 147.017C58.7797 147.254 59.1525 147.458 59.5254 147.695C59.8983 147.932 60.2373 148.102 60.5085 148.271L60.2712 148.678C59.9661 148.508 59.6949 148.373 59.4576 148.271C59.2203 148.203 59.017 148.169 58.8475 148.237C58.6441 148.305 58.4746 148.407 58.2712 148.61C58.0678 148.814 57.8983 149.085 57.661 149.492L52.9492 157.322C52.7458 157.661 52.6102 157.932 52.5424 158.136C52.4746 158.373 52.4407 158.542 52.4746 158.746C52.5085 158.915 52.6102 159.085 52.8136 159.22C52.9831 159.39 53.2203 159.559 53.5593 159.729L53.322 160.136C53.0847 160 52.8136 159.797 52.4746 159.593C52.1356 159.39 51.7627 159.153 51.3898 158.949C51.017 158.712 50.6441 158.508 50.3051 158.305C49.9661 158.102 49.661 157.932 49.4237 157.797C48.2373 157.085 47.4576 156.203 47.1186 155.153C46.7458 154.102 46.8814 153.051 47.4915 152.034C47.7966 151.525 48.1695 151.085 48.6102 150.814C49.0508 150.508 49.4915 150.305 50 150.203C50.4746 150.102 50.983 150.068 51.4915 150.136C52 150.203 52.4746 150.373 52.9153 150.644C53.0847 150.712 53.2203 150.814 53.3898 150.915C53.5593 151.017 53.7288 151.119 53.8983 151.22C54.0678 151.322 54.2373 151.424 54.4068 151.525C54.5763 151.627 54.7119 151.729 54.8475 151.797L56.6102 148.847ZM54.4746 152.407C54.2034 152.203 53.9322 152 53.6271 151.831C53.322 151.627 53.0508 151.458 52.7797 151.322C52.0339 150.915 51.2881 150.814 50.5424 151.017C49.7966 151.254 49.1864 151.763 48.678 152.61C48.3729 153.119 48.2034 153.593 48.1695 154.068C48.1356 154.542 48.1695 154.983 48.3051 155.424C48.4407 155.864 48.6441 156.237 48.9492 156.576C49.2542 156.915 49.5932 157.22 50 157.458C50.1356 157.525 50.3051 157.627 50.5763 157.763C50.8475 157.898 51.017 157.966 51.1186 158L54.4746 152.407Z" fill="var(--fill-0, white)"/>
<path id="Vector_38" d="M45.5254 146.847C45.2203 146.915 44.9153 146.983 44.5763 147.017C44.2373 147.051 43.9322 147.085 43.6271 147.085C43.322 147.085 43.0169 147.051 42.7797 146.983C42.5085 146.915 42.3051 146.847 42.1356 146.712C41.8983 146.542 41.7627 146.305 41.661 146.034C41.5932 145.763 41.661 145.525 41.7966 145.322C41.9661 145.085 42.2034 144.983 42.4407 144.949C42.678 144.949 42.8475 144.983 42.9831 145.085C43.0847 145.186 43.1864 145.254 43.2203 145.356C43.2542 145.458 43.2881 145.525 43.322 145.627C43.322 145.729 43.3898 145.831 43.4576 145.932C43.5254 146.034 43.5932 146.136 43.7288 146.237C43.8305 146.305 43.9661 146.373 44.2034 146.407C44.4407 146.441 44.678 146.441 44.9153 146.407C45.1864 146.407 45.4237 146.339 45.6949 146.237C45.9322 146.136 46.1356 146 46.3051 145.831L48.7458 142.746C48.9153 142.508 49.0508 142.305 49.1525 142.136C49.2542 141.966 49.2542 141.797 49.1864 141.627C49.1186 141.458 49.017 141.288 48.8136 141.085C48.6102 140.881 48.339 140.644 48 140.373L48.3051 140C48.5085 140.203 48.7797 140.407 49.1186 140.678C49.4576 140.949 49.7966 141.22 50.1356 141.492C50.4746 141.763 50.8136 142.034 51.1525 142.305C51.4915 142.576 51.7627 142.78 52 142.949L51.6949 143.322C51.1864 142.915 50.8136 142.746 50.5763 142.746C50.339 142.746 50 143.017 49.6271 143.492L46.9153 146.915C46.7119 147.186 46.5424 147.39 46.4407 147.559C46.339 147.729 46.2712 147.898 46.2712 148C46.2712 148.136 46.2712 148.271 46.4068 148.373C46.5085 148.508 46.6441 148.644 46.8475 148.814L46.6102 149.119C46.2712 148.915 45.9322 148.78 45.5932 148.644C45.2542 148.542 44.9153 148.508 44.5085 148.508L44.2373 148.305C44.4746 148.068 44.7119 147.797 44.9492 147.525C45.1864 147.254 45.3898 146.983 45.5593 146.746L45.5254 146.847Z" fill="var(--fill-0, white)"/>
<path id="Vector_39" d="M36.8136 135.085C37.2881 134.644 37.7966 134.271 38.4068 134.068C38.9831 133.831 39.5593 133.729 40.1356 133.695C40.7119 133.695 41.2881 133.763 41.8305 133.966C42.3729 134.169 42.8475 134.475 43.2542 134.915C43.6949 135.356 44.0339 135.864 44.2373 136.407C44.4746 136.949 44.5763 137.525 44.5763 138.102C44.5763 138.678 44.4746 139.254 44.2373 139.831C44 140.407 43.6271 140.949 43.0847 141.458C42.6102 141.898 42.1017 142.237 41.5254 142.508C40.9492 142.746 40.3729 142.881 39.7966 142.915C39.2203 142.915 38.6441 142.814 38.1017 142.61C37.5593 142.407 37.0508 142.068 36.6102 141.627C36.1695 141.153 35.8305 140.644 35.5932 140.102C35.3559 139.559 35.2542 138.983 35.2542 138.407C35.2542 137.831 35.3898 137.254 35.6271 136.678C35.8644 136.102 36.2373 135.559 36.7458 135.085H36.8136ZM37.9322 135.932C37.5932 136.237 37.2881 136.644 36.9831 137.051C36.678 137.492 36.4746 137.932 36.339 138.407C36.2034 138.881 36.1695 139.39 36.2712 139.864C36.339 140.339 36.5763 140.814 36.9831 141.22C37.3559 141.627 37.7966 141.864 38.2373 142C38.678 142.102 39.1186 142.102 39.5593 142C40 141.898 40.4407 141.729 40.8475 141.458C41.2542 141.186 41.6271 140.915 41.9661 140.61C42.2712 140.305 42.5763 139.932 42.8475 139.525C43.1186 139.119 43.3559 138.644 43.4915 138.169C43.6271 137.695 43.661 137.22 43.5932 136.712C43.5254 136.203 43.2881 135.763 42.8814 135.322C42.5085 134.915 42.0678 134.678 41.6271 134.576C41.1864 134.475 40.7458 134.475 40.2712 134.576C39.8305 134.678 39.3898 134.847 38.9831 135.085C38.5763 135.356 38.2034 135.627 37.8644 135.932H37.9322Z" fill="var(--fill-0, white)"/>
<path id="Vector_40" d="M29.3559 131.966L30 131.492L31.5254 133.525L36.339 129.932C36.7797 129.593 36.9831 129.288 36.9153 128.949C36.8475 128.644 36.6441 128.203 36.2373 127.695L36.6102 127.424C36.7797 127.695 37.017 128 37.2542 128.305C37.4915 128.644 37.7288 128.949 38 129.288C38.2373 129.627 38.4746 129.932 38.7458 130.237C38.9831 130.542 39.2203 130.814 39.3898 131.051L39.0169 131.322C38.678 130.881 38.3729 130.61 38.0339 130.542C37.7288 130.475 37.3898 130.542 37.0169 130.847L32.2373 134.441L33.0847 135.559L32.7797 135.797C32.5424 135.559 32.2712 135.356 31.9661 135.22C31.661 135.085 31.322 135.119 30.9492 135.39C30.678 135.593 30.3729 135.797 30 136C29.6271 136.203 29.2203 136.373 28.8136 136.508C28.4068 136.644 28 136.78 27.5932 136.847C27.1864 136.915 26.7797 136.915 26.4407 136.847C25.7627 136.746 25.1864 136.61 24.7797 136.373C24.3729 136.136 24.1017 135.966 24.0339 135.864C23.8644 135.627 23.7966 135.424 23.7966 135.22C23.7966 135.017 23.8983 134.847 24.1356 134.678C24.3051 134.542 24.5085 134.508 24.7119 134.576C24.9153 134.644 25.0508 134.746 25.1186 134.847C25.1864 134.915 25.2203 134.983 25.2542 135.051C25.2542 135.119 25.2881 135.186 25.322 135.254C25.322 135.322 25.3898 135.424 25.4576 135.525C25.5254 135.627 25.5932 135.763 25.7288 135.932C25.8983 136.169 26.1017 136.305 26.339 136.373C26.5763 136.441 26.8475 136.441 27.1186 136.407C27.3898 136.373 27.6271 136.271 27.8644 136.169C28.1017 136.068 28.3051 135.932 28.4746 135.831L30.9492 133.966L29.4237 131.932L29.3559 131.966Z" fill="var(--fill-0, white)"/>
<path id="Vector_41" d="M30.4407 128.068C30.6102 128 30.8136 127.932 30.9831 127.797C31.1525 127.695 31.3898 127.525 31.661 127.356C32.4407 126.814 32.9831 126.169 33.2542 125.39C33.5254 124.61 33.4576 123.831 32.9831 123.051C32.678 122.508 32.3051 122.136 31.8644 121.864C31.4237 121.593 30.9831 121.424 30.5085 121.356V121.051C31.2203 121.051 31.8983 121.186 32.5763 121.458C33.2203 121.763 33.7627 122.203 34.1356 122.847C34.4068 123.322 34.5763 123.797 34.6102 124.305C34.6441 124.814 34.6102 125.288 34.4068 125.797C34.2373 126.271 33.9661 126.746 33.6271 127.186C33.2542 127.627 32.8136 128 32.2712 128.339C31.5932 128.746 30.9492 129.017 30.3051 129.153C29.661 129.288 29.0847 129.322 28.5424 129.254C28 129.186 27.4915 128.983 27.0847 128.712C26.678 128.441 26.3051 128.068 26.0339 127.593C25.8305 127.288 25.6949 126.915 25.6271 126.542C25.5593 126.169 25.5254 125.763 25.5932 125.39C25.661 125.017 25.8305 124.644 26.0678 124.271C26.3051 123.898 26.6441 123.593 27.1186 123.322C27.2542 123.254 27.3559 123.22 27.4237 123.22C27.4915 123.22 27.5932 123.288 27.6949 123.39L30.5085 128.102L30.4407 128.068ZM27.8983 124.949C27.7966 124.746 27.661 124.644 27.5593 124.576C27.4576 124.542 27.322 124.576 27.1525 124.644C26.983 124.746 26.8136 124.881 26.678 125.085C26.5424 125.288 26.4068 125.492 26.339 125.729C26.2712 125.966 26.2373 126.237 26.2712 126.508C26.2712 126.78 26.3729 127.051 26.5424 127.322C26.9153 127.932 27.3898 128.305 27.9661 128.441C28.5763 128.576 29.1864 128.542 29.8644 128.305L27.8644 124.949H27.8983Z" fill="var(--fill-0, white)"/>
<path id="Vector_42" d="M29.0508 119.831C29.2881 119.695 29.4915 119.525 29.7288 119.322C29.9661 119.119 30.1356 118.915 30.3051 118.678C30.4407 118.441 30.5424 118.169 30.5763 117.864C30.5763 117.559 30.5424 117.22 30.3729 116.847C30.0678 116.203 29.7627 115.831 29.3559 115.695C28.9831 115.559 28.6102 115.593 28.2712 115.729C28 115.831 27.7966 116 27.661 116.203C27.5254 116.407 27.4237 116.61 27.3559 116.847C27.2881 117.085 27.2542 117.356 27.2203 117.627C27.2203 117.898 27.1864 118.203 27.1525 118.475C27.1186 119.186 26.9831 119.831 26.7797 120.441C26.5763 121.051 26.1695 121.458 25.5932 121.729C25.2881 121.864 24.983 121.932 24.6441 121.932C24.3051 121.932 24 121.864 23.6949 121.729C23.3898 121.593 23.0847 121.39 22.8136 121.119C22.5424 120.847 22.3051 120.508 22.1356 120.102C22 119.831 21.9322 119.525 21.8305 119.153C21.7627 118.78 21.7288 118.407 21.7627 118.034L23.5593 117.051L23.7288 117.424C23.1864 117.763 22.8136 118.136 22.6441 118.576C22.4746 118.983 22.5085 119.492 22.7458 120.068C22.9492 120.508 23.2203 120.847 23.5932 121.085C23.9661 121.322 24.339 121.356 24.7119 121.186C24.9831 121.051 25.1864 120.881 25.322 120.678C25.4576 120.475 25.5593 120.237 25.6271 119.932C25.6949 119.661 25.7288 119.356 25.7288 119.051C25.7288 118.746 25.7288 118.407 25.7288 118.102C25.7288 117.797 25.7288 117.458 25.7627 117.153C25.7627 116.847 25.8644 116.542 25.9661 116.271C26.0678 116 26.2034 115.763 26.4068 115.525C26.6102 115.288 26.8475 115.119 27.1525 114.983C27.4576 114.847 27.7966 114.78 28.1356 114.746C28.4746 114.746 28.8136 114.78 29.1525 114.915C29.4915 115.051 29.8305 115.254 30.1017 115.559C30.4068 115.864 30.6441 116.271 30.8814 116.746C31.0169 117.085 31.1525 117.458 31.2203 117.898C31.2881 118.339 31.2881 118.712 31.2203 119.051L29.1525 120.203L28.9831 119.797L29.0508 119.831Z" fill="var(--fill-0, white)"/>
<path id="Vector_43" d="M26.2034 113.085C26.4407 112.983 26.678 112.814 26.9153 112.678C27.1525 112.508 27.3559 112.305 27.5593 112.102C27.7288 111.864 27.8644 111.627 27.8983 111.322C27.9661 111.017 27.8983 110.678 27.7966 110.271C27.5932 109.593 27.2881 109.186 26.9153 109.017C26.5424 108.847 26.1695 108.847 25.8305 108.949C25.5593 109.051 25.3559 109.153 25.1864 109.356C25.017 109.525 24.9153 109.729 24.8136 109.966C24.7119 110.203 24.6441 110.441 24.6102 110.712C24.5763 110.983 24.5085 111.254 24.4746 111.559C24.339 112.271 24.1695 112.915 23.8983 113.458C23.6271 114.034 23.1864 114.407 22.6102 114.61C22.3051 114.712 22 114.746 21.661 114.712C21.322 114.678 21.0169 114.576 20.7119 114.407C20.4068 114.237 20.1695 114 19.8983 113.729C19.661 113.424 19.4576 113.085 19.322 112.644C19.2203 112.373 19.1525 112.034 19.1186 111.661C19.0847 111.288 19.1186 110.915 19.1864 110.542L21.0847 109.763L21.2203 110.136C20.6441 110.407 20.2373 110.746 20 111.153C19.7627 111.559 19.7627 112.068 19.9322 112.644C20.0678 113.119 20.339 113.458 20.678 113.729C21.0169 114 21.3898 114.068 21.7627 113.932C22.0339 113.831 22.2712 113.695 22.4407 113.492C22.6102 113.288 22.7458 113.051 22.8475 112.814C22.9492 112.542 22.9831 112.271 23.0508 111.966C23.0847 111.661 23.1186 111.322 23.1525 111.017C23.1864 110.712 23.2542 110.407 23.2881 110.102C23.3559 109.797 23.4576 109.525 23.5932 109.254C23.7288 109.017 23.8983 108.78 24.1017 108.576C24.3051 108.373 24.5763 108.203 24.9153 108.102C25.2203 108 25.5593 107.966 25.8983 107.966C26.2373 107.966 26.5763 108.068 26.8814 108.237C27.2203 108.407 27.4915 108.644 27.7627 108.983C28.0339 109.322 28.2373 109.729 28.4068 110.237C28.5085 110.576 28.5763 110.983 28.6102 111.424C28.6102 111.864 28.6102 112.237 28.5085 112.576L26.339 113.525L26.2034 113.119V113.085Z" fill="var(--fill-0, white)"/>
<path id="Vector_44" d="M13.8305 108.068C13.5932 108.136 13.3559 108.068 13.1525 107.932C12.9153 107.797 12.7797 107.593 12.7458 107.356C12.678 107.119 12.7458 106.881 12.8814 106.644C13.0169 106.407 13.2203 106.271 13.4576 106.237C13.6949 106.169 13.9322 106.237 14.1356 106.373C14.339 106.508 14.4746 106.712 14.5424 106.949C14.6102 107.186 14.5424 107.424 14.4068 107.627C14.2712 107.831 14.0678 107.966 13.8305 108.034V108.068ZM24.6441 104.102C25.1525 104 25.4915 103.831 25.5932 103.627C25.6949 103.424 25.6949 103.051 25.5932 102.542L26.0339 102.441C26.0678 102.61 26.1017 102.78 26.1356 102.915C26.1356 103.051 26.2034 103.22 26.2034 103.356C26.2034 103.492 26.2712 103.661 26.3051 103.797C26.3051 103.966 26.3729 104.102 26.4068 104.271C26.4407 104.441 26.4746 104.61 26.5424 104.78C26.5763 104.915 26.6102 105.085 26.6441 105.22C26.678 105.39 26.7119 105.525 26.7458 105.695C26.7797 105.831 26.8136 106 26.8475 106.169L26.4068 106.271C26.2712 105.729 26.1356 105.39 25.9661 105.254C25.7966 105.119 25.4237 105.119 24.9153 105.254L20.4746 106.237C20.1356 106.305 19.8983 106.373 19.6949 106.441C19.4915 106.508 19.3559 106.576 19.2881 106.678C19.1864 106.78 19.1525 106.915 19.1525 107.051C19.1525 107.186 19.1525 107.424 19.2203 107.661L18.8475 107.763C18.7119 107.39 18.5424 107.051 18.339 106.746C18.1356 106.441 17.8983 106.203 17.5593 105.966L17.4915 105.627C17.8305 105.593 18.1695 105.525 18.5424 105.458C18.9153 105.39 19.2542 105.322 19.5254 105.254L24.6441 104.102Z" fill="var(--fill-0, white)"/>
<path id="Vector_45" d="M20.339 92.8475C20.9831 92.7797 21.6271 92.8475 22.2034 93.017C22.8136 93.1864 23.322 93.4576 23.7966 93.7966C24.2712 94.1356 24.6441 94.5763 24.9492 95.0847C25.2542 95.5932 25.4237 96.1356 25.4915 96.7119C25.5593 97.322 25.4915 97.9322 25.3559 98.5085C25.2203 99.0848 24.9492 99.5932 24.5763 100.068C24.2373 100.542 23.7627 100.915 23.2203 101.22C22.678 101.525 22.0339 101.729 21.322 101.797C20.678 101.864 20.0678 101.797 19.4576 101.661C18.8475 101.492 18.339 101.254 17.8644 100.915C17.3898 100.576 17.0169 100.136 16.7119 99.6271C16.4068 99.1186 16.2034 98.5424 16.1356 97.9322C16.0678 97.2881 16.1356 96.678 16.2712 96.1017C16.4407 95.5254 16.678 95.017 17.0508 94.5424C17.3898 94.1017 17.8644 93.7288 18.4068 93.4237C18.9492 93.1187 19.5932 92.9492 20.2712 92.8475H20.339ZM20.7119 94.1695C20.2712 94.2034 19.7627 94.339 19.2881 94.4746C18.7797 94.6441 18.339 94.8814 17.9322 95.1526C17.5254 95.4576 17.2203 95.8305 16.983 96.2373C16.7458 96.678 16.6441 97.1864 16.7119 97.7627C16.7797 98.3051 16.9492 98.7797 17.2203 99.1525C17.4915 99.5254 17.8644 99.7966 18.2712 100C18.678 100.203 19.1525 100.305 19.6271 100.373C20.1017 100.441 20.5763 100.441 21.0508 100.373C21.4915 100.339 21.9322 100.237 22.4407 100.068C22.9153 99.8983 23.3898 99.661 23.7966 99.3898C24.2034 99.0848 24.5424 98.7458 24.7797 98.3051C25.0169 97.8644 25.1186 97.3559 25.0508 96.7797C24.9831 96.2373 24.8136 95.7627 24.5424 95.4237C24.2712 95.0509 23.8983 94.7797 23.4915 94.6102C23.0847 94.4068 22.6441 94.2712 22.1356 94.2034C21.661 94.1356 21.1864 94.1356 20.7458 94.2034L20.7119 94.1695Z" fill="var(--fill-0, white)"/>
<path id="Vector_46" d="M16.7797 88.5424C17.0847 88.5424 17.3559 88.5763 17.4915 88.5763C17.1186 88 16.7458 87.3898 16.4068 86.7119C16.0678 86.0339 15.8983 85.4237 15.9322 84.8136C15.9661 84.0678 16.2712 83.5593 16.8136 83.2542C17.3559 82.9492 18.0339 82.8475 18.8136 82.8814L23.2203 83.1186C23.7288 83.1186 24.1017 83.0847 24.339 82.9153C24.5763 82.7458 24.678 82.4068 24.7119 81.8305H25.1864C25.1864 82.0339 25.1864 82.2034 25.1864 82.339C25.1864 82.5085 25.1864 82.6441 25.1525 82.7797C25.1525 82.9153 25.1525 83.0847 25.1525 83.2203C25.1525 83.3898 25.1525 83.5254 25.1186 83.7288C25.1186 83.8983 25.1186 84.1017 25.1186 84.2373C25.1186 84.4068 25.1186 84.5424 25.1186 84.678C25.1186 84.8136 25.1186 84.9831 25.1186 85.1186C25.1186 85.2881 25.1186 85.4237 25.1186 85.6271H24.6441C24.6441 85.0847 24.5763 84.7119 24.3729 84.5424C24.1695 84.3729 23.7966 84.2373 23.2881 84.2373L18.8814 84C18.2712 84 17.7966 84.1017 17.5254 84.3729C17.2542 84.6441 17.0847 85.1186 17.0508 85.7627C17.0508 85.9322 17.0847 86.1695 17.1525 86.4068C17.2203 86.6441 17.2881 86.9153 17.3898 87.1525C17.4915 87.4237 17.6271 87.661 17.7627 87.9322C17.8983 88.1695 18.0339 88.4068 18.1695 88.5763L23.0508 88.8136C23.5593 88.8136 23.9322 88.7797 24.1695 88.6102C24.4068 88.4407 24.5085 88.1017 24.5424 87.5254H25.017C25.017 87.7288 25.017 87.8983 25.017 88.0339C25.017 88.1695 25.0169 88.339 24.983 88.4746C24.983 88.6102 24.983 88.7797 24.983 88.9152C24.983 89.0847 24.9831 89.2203 24.9492 89.4237C24.9492 89.5932 24.9492 89.7966 24.9492 89.9322C24.9492 90.1017 24.9492 90.2373 24.9492 90.3729C24.9492 90.5424 24.9492 90.678 24.9492 90.8475C24.9492 91.0169 24.9492 91.1525 24.9492 91.3559H24.4746C24.4746 90.7797 24.4068 90.4407 24.2034 90.2373C24 90.0678 23.6271 89.9661 23.1186 89.9322L18.7458 89.6949C18.4068 89.6949 18.1356 89.6949 17.9322 89.6949C17.7288 89.6949 17.5593 89.7288 17.4576 89.7966C17.3559 89.8644 17.2542 89.9661 17.2203 90.1356C17.1864 90.3051 17.1525 90.4746 17.1186 90.7458H16.7119C16.678 90.339 16.6102 89.9661 16.4746 89.6271C16.3729 89.2881 16.2034 88.9831 15.9322 88.7119V88.3729C16.2712 88.4407 16.6102 88.4746 16.9153 88.4746L16.7797 88.5424Z" fill="var(--fill-0, white)"/>
<path id="Vector_47" d="M26.2712 72.9153C26.4746 73.2203 26.6441 73.5593 26.7797 73.8983C26.9153 74.2373 26.9831 74.5763 26.9153 74.8475C26.8475 75.1525 26.678 75.3559 26.3729 75.4576C26.0678 75.5932 25.661 75.5932 25.1525 75.5254C25.5254 76.0678 25.8305 76.6441 26 77.2542C26.1695 77.8644 26.2034 78.4746 26.0678 79.0508C25.9661 79.5932 25.6949 80.0339 25.2542 80.339C24.8136 80.6441 24.339 80.7119 23.7966 80.6102C23.3559 80.5085 22.9831 80.3051 22.7119 79.9661C22.4407 79.6271 22.2373 79.2203 22.0678 78.7119C21.9322 78.2034 21.7966 77.6271 21.7288 76.983C21.661 76.3051 21.5593 75.5932 21.4915 74.8136L20.2373 74.5763C19.6949 74.4746 19.2203 74.5085 18.8475 74.678C18.4407 74.8475 18.1695 75.322 18.0339 76.0339C17.9322 76.5424 18 77.0169 18.2034 77.4915C18.4068 77.9322 18.7458 78.2373 19.1525 78.3051C19.4576 78.3729 19.661 78.4746 19.7627 78.6102C19.8644 78.7458 19.8983 78.9153 19.8644 79.0847C19.8644 79.2203 19.7627 79.322 19.6271 79.3898C19.4915 79.4576 19.322 79.4576 19.1186 79.3898C18.7797 79.322 18.5085 79.1186 18.2712 78.7458C18.0339 78.3729 17.7966 77.7966 17.5593 77.0508C17.4237 76.6102 17.322 76.2373 17.2881 75.9661C17.2542 75.6949 17.2542 75.3898 17.2881 75.1186C17.3898 74.5424 17.6949 74.0678 18.1356 73.6949C18.5763 73.322 19.1186 73.2203 19.7966 73.3559L24.7797 74.3729C25.4576 74.5085 25.8644 74.4407 26.0339 74.1695C26.2034 73.8983 26.1695 73.4915 25.9322 72.9491H26.2373L26.2712 72.9153ZM21.9661 74.8814C22.1017 76.3051 22.2712 77.3898 22.4746 78.1017C22.678 78.8475 23.0508 79.2542 23.5932 79.3559C24.1356 79.4576 24.5763 79.3898 24.8136 79.1525C25.0847 78.9153 25.2542 78.5424 25.3559 78.0339C25.4576 77.5932 25.4237 77.1186 25.2542 76.678C25.0847 76.2034 24.8814 75.7966 24.6102 75.4237L21.9661 74.8814Z" fill="var(--fill-0, white)"/>
<path id="Vector_48" d="M16.0339 67.0847C15.7288 66.983 15.4915 66.9153 15.2881 66.8814C15.0847 66.8814 14.9153 66.8814 14.7797 66.9152C14.6441 66.983 14.5763 67.0847 14.4746 67.2203C14.4068 67.3559 14.339 67.5593 14.2373 67.8305L13.8983 67.7288C13.9322 67.322 13.9661 66.9153 13.8983 66.5085C13.8983 66.1017 13.7627 65.7288 13.5932 65.3559L13.6949 65.0508C14 65.1864 14.339 65.322 14.678 65.4576C15.0508 65.5932 15.3559 65.6949 15.6271 65.7966L26.2034 69.1525C26.7119 69.322 27.0847 69.3559 27.322 69.2542C27.5932 69.1525 27.7966 68.8475 27.9661 68.339L28.4068 68.4746C28.339 68.7458 28.2373 69.0169 28.1356 69.3559C28.0339 69.6949 27.9322 70 27.8305 70.3051C27.7288 70.6441 27.6271 70.9491 27.5254 71.2542C27.4237 71.5593 27.3559 71.8305 27.2881 72.0678L26.8475 71.9322C27.0169 71.3898 27.0508 71.0169 26.9153 70.8136C26.7797 70.6102 26.4407 70.4068 25.8983 70.2373L16 67.0847H16.0339Z" fill="var(--fill-0, white)"/>
<path id="Vector_49" d="M30.2373 66.0678C30.1017 66.3729 29.8983 66.5763 29.6271 66.7119C29.3559 66.8136 29.0508 66.8136 28.7797 66.7119C28.5085 66.6102 28.2712 66.4068 28.1695 66.1356C28.0339 65.8644 28.0339 65.5593 28.1695 65.2542C28.3051 64.9492 28.5085 64.7119 28.7797 64.6102C29.0508 64.4746 29.3559 64.4746 29.6271 64.6102C29.9322 64.7458 30.1356 64.9492 30.2373 65.2203C30.339 65.4915 30.339 65.7966 30.2373 66.1017V66.0678Z" fill="var(--fill-0, white)"/>
<path id="Vector_50" d="M113.898 69.3898C120.508 76 120.508 86.678 113.932 93.2881L92.7119 114.508C91.2203 116 88.7797 116 87.2542 114.508L66.0339 93.2881C59.4237 86.678 59.4237 75.9661 66.0339 69.3559C72.1017 63.2881 81.5932 62.7797 88.2373 67.8305C89.2542 68.6102 90.678 68.6102 91.6949 67.8305C98.339 62.8136 107.797 63.322 113.864 69.3898H113.898Z" fill="var(--fill-0, white)"/>
<path id="Vector_51" opacity="0.2" d="M125.898 76.339C131.492 81.9322 131.525 91.0169 125.932 96.6441L107.932 114.644C106.644 115.932 104.576 115.932 103.288 114.644L85.2881 96.6441C79.661 91.0169 79.661 81.9322 85.2881 76.3051C90.4407 71.1525 98.5085 70.7458 104.136 75.0169C105.017 75.661 106.203 75.661 107.085 75.0169C112.712 70.7458 120.78 71.1864 125.898 76.339Z" fill="var(--fill-0, white)"/>
<path id="Vector_52" opacity="0.2" d="M94.7119 76.339C100.305 81.9322 100.339 91.0169 94.7458 96.6441L76.7458 114.644C75.4576 115.932 73.3898 115.932 72.1017 114.644L54.1017 96.6441C48.4746 91.0169 48.4746 81.9322 54.1017 76.3051C59.2542 71.1525 67.322 70.7458 72.9492 75.0169C73.8305 75.661 75.0169 75.661 75.8983 75.0169C81.5254 70.7458 89.5932 71.1864 94.7119 76.339Z" fill="var(--fill-0, white)"/>
</g>
</svg>
