<svg preserveAspectRatio="none" width="100%" height="100%" overflow="visible" style="display: block;" viewBox="0 0 33 26" fill="none" xmlns="http://www.w3.org/2000/svg">
<path id="Vector" d="M30.9375 22H22.6875V24C22.6875 24.5417 22.4834 25.0104 22.0752 25.4062C21.667 25.8021 21.1836 26 20.625 26H12.375C11.8164 26 11.333 25.8021 10.9248 25.4062C10.5166 25.0104 10.3125 24.5417 10.3125 24V22H2.0625C1.50391 22 1.02051 21.8021 0.612305 21.4062C0.204102 21.0104 0 20.5417 0 20V16H33V20C33 20.5417 32.7959 21.0104 32.3877 21.4062C31.9795 21.8021 31.4961 22 30.9375 22ZM12.375 24H20.625V22H12.375V24ZM12.375 14H20.625V12H12.375V14ZM22.6875 12C22.6875 11.4583 22.4834 10.9896 22.0752 10.5938C21.667 10.1979 21.1836 10 20.625 10H12.375C11.8164 10 11.333 10.1979 10.9248 10.5938C10.5166 10.9896 10.3125 11.4583 10.3125 12V14H0V2C0 1.45833 0.204102 0.989583 0.612305 0.59375C1.02051 0.197917 1.50391 0 2.0625 0H30.9375C31.4961 0 31.9795 0.197917 32.3877 0.59375C32.7959 0.989583 33 1.45833 33 2V14H22.6875V12Z" fill="var(--fill-0, #7EBEC5)"/>
</svg>
