<svg width="24" height="24" viewBox="0 0 24 24" fill="none" xmlns="http://www.w3.org/2000/svg" preserveAspectRatio="xMidYMid meet">
  <path d="M5.2 11.6c3.5-1.5 5.8-2.5 7-3 3.3-1.4 4-1.6 4.5-1.6.1 0 .3.03.5.15.12.1.16.26.18.37.02.11.04.36.02.55-.16 1.7-.9 5.8-1.25 7.8-.16.85-.45 1.14-.74 1.17-.64.06-1.12-.42-1.74-.83-.97-.63-1.52-1.02-2.45-1.65-1.08-.71-.38-1.12.23-1.76.17-.18 2.9-2.7 2.96-2.94.01-.03.01-.13-.05-.19-.05-.05-.14-.04-.19-.02-.08.02-1.37.87-3.86 2.57-.36.24-.68.36-.98.35-.32-.01-.95-.18-1.42-.34-.57-.19-1.03-.29-1-.61.02-.16.24-.33.66-.5z" fill="#fff"/>
</svg>
