<svg width="24" height="24" viewBox="0 0 24 24" fill="none" xmlns="http://www.w3.org/2000/svg" preserveAspectRatio="xMidYMid meet">
  <path d="M10 15.2V8.8l5.6 3.2L10 15.2z" fill="#fff"/>
  <path fill-rule="evenodd" clip-rule="evenodd" d="M12 4.5c4.2 0 7.2.3 8.8.9 1 .4 1.8 1.2 2.2 2.2.5 1.6.8 4.6.8 8.8s-.3 7.2-.9 8.8c-.4 1-1.2 1.8-2.2 2.2-1.6.5-4.6.8-8.8.8s-7.2-.3-8.8-.9c-1-.4-1.8-1.2-2.2-2.2-.5-1.6-.8-4.6-.8-8.8s.3-7.2.9-8.8c.4-1 1.2-1.8 2.2-2.2 1.6-.5 4.6-.8 8.8-.8zm-1.1 4.3c-.4 0-.7.3-.7.7v8c0 .4.3.7.7.7.2 0 .4-.1.5-.2l5.6-3.2c.3-.2.4-.6.2-.9 0-.1-.1-.2-.2-.2l-5.6-3.2c-.1-.1-.3-.2-.5-.2z" fill="#fff"/>
</svg>
