<svg preserveAspectRatio="none" width="100%" height="100%" overflow="visible" style="display: block;" viewBox="0 0 20 20.5" fill="none" xmlns="http://www.w3.org/2000/svg">
<g id="Icon">
<path id="Vector" d="M10.625 2.75C10.7943 2.75 10.9408 2.81185 11.0645 2.93555C11.1882 3.05924 11.25 3.20573 11.25 3.375V15.6211L13.9258 12.9258C14.056 12.8086 14.2057 12.75 14.375 12.75C14.5443 12.75 14.694 12.8086 14.8242 12.9258C14.9414 13.056 15 13.2057 15 13.375C15 13.5443 14.9414 13.694 14.8242 13.8242L11.0742 17.5742C11.0352 17.6003 10.9993 17.623 10.9668 17.6426C10.9342 17.6621 10.8984 17.6849 10.8594 17.7109C10.7812 17.737 10.7031 17.75 10.625 17.75C10.5469 17.75 10.4688 17.737 10.3906 17.7109C10.3516 17.6849 10.3158 17.6621 10.2832 17.6426C10.2507 17.623 10.2214 17.6003 10.1953 17.5742C10.1953 17.5742 10.1921 17.5742 10.1855 17.5742C10.179 17.5742 10.1758 17.5742 10.1758 17.5742L6.42578 13.8242C6.30859 13.694 6.25 13.5443 6.25 13.375C6.25 13.2057 6.30859 13.056 6.42578 12.9258C6.55599 12.8086 6.70573 12.75 6.875 12.75C7.04427 12.75 7.19401 12.8086 7.32422 12.9258L10 15.6211V3.375C10 3.20573 10.0618 3.05924 10.1855 2.93555C10.3092 2.81185 10.4557 2.75 10.625 2.75Z" fill="var(--fill-0, white)"/>
</g>
</svg>
