<svg preserveAspectRatio="none" width="100%" height="100%" overflow="visible" style="display: block;" viewBox="0 0 20 20.5" fill="none" xmlns="http://www.w3.org/2000/svg">
<g id="Icon">
<path id="Vector" d="M14.2383 11.6172L10.625 8.00391L7.01172 11.6172C6.89453 11.7474 6.74805 11.8125 6.57227 11.8125C6.39648 11.8125 6.25 11.7474 6.13281 11.6172C6.0026 11.5 5.9375 11.3568 5.9375 11.1875C5.9375 11.0182 6.0026 10.8685 6.13281 10.7383L10.1758 6.69531C10.2409 6.63021 10.3125 6.58138 10.3906 6.54883C10.4688 6.51628 10.5469 6.5 10.625 6.5C10.7031 6.5 10.7812 6.51628 10.8594 6.54883C10.9375 6.58138 11.0091 6.63021 11.0742 6.69531L15.1172 10.7383C15.2474 10.8685 15.3125 11.0182 15.3125 11.1875C15.3125 11.3568 15.2474 11.5 15.1172 11.6172C15 11.7474 14.8535 11.8125 14.6777 11.8125C14.502 11.8125 14.3555 11.7474 14.2383 11.6172Z" fill="var(--fill-0, white)"/>
</g>
</svg>
