<svg preserveAspectRatio="none" width="100%" height="100%" overflow="visible" style="display: block;" viewBox="0 0 16 16" fill="none" xmlns="http://www.w3.org/2000/svg">
<g id="Icon">
<path id="Vector" d="M11.3906 9.09375L8.5 6.20312L5.60938 9.09375C5.51562 9.19792 5.39844 9.25 5.25781 9.25C5.11719 9.25 5 9.19792 4.90625 9.09375C4.80208 9 4.75 8.88542 4.75 8.75C4.75 8.61458 4.80208 8.49479 4.90625 8.39062L8.14062 5.15625C8.19271 5.10417 8.25 5.0651 8.3125 5.03906C8.375 5.01302 8.4375 5 8.5 5C8.5625 5 8.625 5.01302 8.6875 5.03906C8.75 5.0651 8.80729 5.10417 8.85938 5.15625L12.0938 8.39062C12.1979 8.49479 12.25 8.61458 12.25 8.75C12.25 8.88542 12.1979 9 12.0938 9.09375C12 9.19792 11.8828 9.25 11.7422 9.25C11.6016 9.25 11.4844 9.19792 11.3906 9.09375Z" fill="var(--fill-0, white)"/>
</g>
</svg>
