<svg preserveAspectRatio="none" width="100%" height="100%" overflow="visible" style="display: block;" viewBox="0 0 18 18" fill="none" xmlns="http://www.w3.org/2000/svg">
<g id="Icon">
<path id="Vector" d="M9.5625 16.875C8.40234 16.875 7.30664 16.6523 6.27539 16.207C5.25586 15.7734 4.3623 15.1729 3.59473 14.4053C2.82715 13.6377 2.22656 12.7441 1.79297 11.7246C1.34766 10.6934 1.125 9.59766 1.125 8.4375C1.125 7.27734 1.34766 6.18164 1.79297 5.15039C2.22656 4.13086 2.82715 3.2373 3.59473 2.46973C4.3623 1.70215 5.25586 1.10156 6.27539 0.667969C7.30664 0.222656 8.40234 0 9.5625 0C10.7227 0 11.8184 0.222656 12.8496 0.667969C13.8691 1.10156 14.7627 1.70215 15.5303 2.46973C16.2979 3.2373 16.8984 4.13086 17.332 5.15039C17.7773 6.18164 18 7.27734 18 8.4375C18 9.59766 17.7773 10.6934 17.332 11.7246C16.8984 12.7441 16.2979 13.6377 15.5303 14.4053C14.7627 15.1729 13.8691 15.7734 12.8496 16.207C11.8184 16.6523 10.7227 16.875 9.5625 16.875ZM13.3418 6.9082L9.9668 3.5332C9.93164 3.50977 9.89941 3.48926 9.87012 3.47168C9.84082 3.4541 9.80859 3.43359 9.77344 3.41016C9.70312 3.38672 9.63281 3.375 9.5625 3.375C9.49219 3.375 9.42188 3.38672 9.35156 3.41016C9.31641 3.43359 9.28418 3.4541 9.25488 3.47168C9.22559 3.48926 9.19922 3.50977 9.17578 3.5332C9.17578 3.5332 9.16992 3.5332 9.1582 3.5332L5.7832 6.9082C5.67773 7.02539 5.625 7.16016 5.625 7.3125C5.625 7.46484 5.67773 7.59961 5.7832 7.7168C5.90039 7.82227 6.03516 7.875 6.1875 7.875C6.33984 7.875 6.47461 7.82227 6.5918 7.7168L9 5.29102V14.0625C9 14.2148 9.05566 14.3467 9.16699 14.458C9.27832 14.5693 9.41016 14.625 9.5625 14.625C9.71484 14.625 9.84668 14.5693 9.95801 14.458C10.0693 14.3467 10.125 14.2148 10.125 14.0625V5.29102L12.5332 7.7168C12.6504 7.82227 12.7852 7.875 12.9375 7.875C13.0898 7.875 13.2246 7.82227 13.3418 7.7168C13.4473 7.59961 13.5 7.46484 13.5 7.3125C13.5 7.16016 13.4473 7.02539 13.3418 6.9082Z" fill="var(--fill-0, black)"/>
</g>
</svg>
