<svg preserveAspectRatio="none" width="100%" height="100%" overflow="visible" style="display: block;" viewBox="0 0 20.4813 20.4813" fill="none" xmlns="http://www.w3.org/2000/svg">
<g id="Layer_1-2">
<path id="Vector" d="M8.82165 15.4615L8.33972 18.7815C8.33972 18.9421 8.17908 19.1028 8.01844 19.1563L6.57266 19.7453C6.30492 19.8524 6.03718 19.7453 5.93008 19.4776L5.34106 18.0318C5.28751 17.8712 5.34106 17.7105 5.39461 17.5499L7.42942 14.9261C7.53651 14.7654 7.69715 14.7119 7.8578 14.7654H8.12553C8.23263 14.7654 8.28618 14.8725 8.33972 14.9261L8.55391 15.0867C8.71456 15.1938 8.7681 15.3544 8.71456 15.5151L8.82165 15.4615Z" fill="var(--fill-0, white)"/>
<path id="Vector_2" d="M6.41201 14.0158L4.37721 16.6396C4.27011 16.8002 4.10947 16.8538 3.94883 16.8002L2.39595 16.586C2.12821 16.586 1.96757 16.3183 1.96757 16.0506L2.18176 14.4977C2.18176 14.337 2.3424 14.1764 2.50304 14.1229L5.6088 12.8913C5.76944 12.8377 5.93008 12.8913 6.09073 12.9448L6.30492 13.1055C6.35846 13.1055 6.41201 13.2125 6.46556 13.3196L6.57265 13.5874C6.6262 13.748 6.57265 13.9087 6.51911 14.0693L6.41201 14.0158Z" fill="var(--fill-0, white)"/>
<path id="Vector_3" d="M5.34106 10.8565V11.2313C5.34106 11.3919 5.18042 11.5526 5.01978 11.6061L1.91402 12.8377C1.75338 12.8913 1.59274 12.8377 1.43209 12.7842L0.2005 11.8203C-0.0136903 11.6597 -0.0672378 11.3384 0.0934047 11.1242L1.05726 9.8926C1.16436 9.73196 1.325 9.67841 1.48564 9.73196L4.80559 10.2139C4.96623 10.2139 5.12687 10.3745 5.18042 10.5352L5.34106 10.91V10.8565Z" fill="var(--fill-0, white)"/>
<path id="Vector_4" d="M5.55525 7.48296C5.71589 7.59006 5.76944 7.7507 5.71589 7.91134V8.28618C5.66235 8.28618 5.66235 8.28618 5.66235 8.28618L5.39461 8.60746C5.28751 8.7681 5.12687 8.82165 4.96623 8.7681L1.64628 8.28618C1.48564 8.28618 1.325 8.12553 1.27145 7.96489L0.682427 6.51911C0.575332 6.25137 0.682427 5.98363 0.950165 5.87654L2.39595 5.28751C2.55659 5.23397 2.71723 5.28751 2.87788 5.34106L5.5017 7.37587L5.55525 7.48296Z" fill="var(--fill-0, white)"/>
<path id="Vector_5" d="M7.48296 5.98363L7.32232 6.19782C7.32232 6.25137 7.21523 6.30492 7.10813 6.35847L6.84039 6.46556C6.67975 6.51911 6.51911 6.46556 6.35846 6.41201L3.73464 4.37721C3.57399 4.27011 3.52045 4.10947 3.57399 3.94883L3.78818 2.39595C3.78818 2.12821 4.05592 1.96757 4.32366 1.96757L5.87654 2.18176C6.03718 2.18176 6.19782 2.3424 6.25137 2.50304L7.48296 5.6088C7.53651 5.76944 7.48296 5.93008 7.42941 6.09073L7.48296 5.98363Z" fill="var(--fill-0, white)"/>
<path id="Vector_6" d="M10.7494 1.53919L10.2674 4.85913C10.2674 5.01978 10.1068 5.18042 9.94615 5.23397L9.57132 5.39461H9.19648C9.03584 5.28751 8.8752 5.18042 8.82165 5.01978L7.59006 1.91402C7.53651 1.75338 7.59006 1.59274 7.64361 1.43209L8.60746 0.2005C8.7681 -0.0136903 9.08939 -0.0672379 9.30358 0.0934047L10.5352 1.05726C10.6958 1.16436 10.7494 1.325 10.6958 1.48564L10.7494 1.53919Z" fill="var(--fill-0, white)"/>
<path id="Vector_7" d="M15.0332 2.93142L12.9984 5.55525C12.8913 5.71589 12.7306 5.76944 12.57 5.71589H12.1951C12.1951 5.66235 12.1951 5.66235 12.1951 5.66235L11.8739 5.39461C11.7132 5.28751 11.6597 5.12687 11.7132 4.96623L12.1951 1.64628C12.1951 1.48564 12.3558 1.325 12.5164 1.27145L13.9622 0.682427C14.23 0.575332 14.4977 0.682427 14.6048 0.950165L15.1938 2.39595C15.2474 2.55659 15.1938 2.71723 15.1403 2.87788L15.0332 2.93142Z" fill="var(--fill-0, white)"/>
<path id="Vector_8" d="M18.5673 4.37721L18.3531 5.93009C18.3531 6.09073 18.1925 6.25137 18.0318 6.30492L14.9261 7.53651C14.7654 7.59006 14.6048 7.53651 14.4441 7.48296L14.23 7.32232C14.1764 7.32232 14.1229 7.21523 14.0693 7.10813L13.9622 6.84039C13.9087 6.67975 13.9622 6.51911 14.0158 6.35846L16.0506 3.73464C16.1577 3.57399 16.3183 3.52045 16.4789 3.57399L18.0318 3.78818C18.2996 3.78818 18.4602 4.05592 18.4602 4.32366L18.5673 4.37721Z" fill="var(--fill-0, white)"/>
<path id="Vector_9" d="M20.3879 9.30358L19.4241 10.5352C19.317 10.6958 19.1563 10.7494 18.9957 10.6958L15.6757 10.2139C15.5151 10.2139 15.3544 10.0532 15.3009 9.8926L15.1403 9.51777V9.14294C15.1403 8.98229 15.3009 8.82165 15.4615 8.7681L18.5673 7.53651C18.7279 7.48296 18.8886 7.53651 19.0492 7.59006L20.2808 8.55391C20.495 8.71456 20.5486 9.03584 20.3879 9.25003V9.30358Z" fill="var(--fill-0, white)"/>
<path id="Vector_10" d="M19.4776 14.4977L18.0318 15.0867C17.8712 15.1403 17.7105 15.0867 17.5499 15.0332L14.9261 12.9984C14.7654 12.8913 14.7119 12.7306 14.7654 12.57V12.1951L15.0332 11.8739C15.1403 11.7132 15.3009 11.6597 15.4615 11.7132L18.7815 12.1951C18.9421 12.1951 19.1028 12.3558 19.1563 12.5164L19.7453 13.9622C19.8524 14.23 19.7453 14.4977 19.4776 14.6048V14.4977Z" fill="var(--fill-0, white)"/>
<path id="Vector_11" d="M16.8538 16.586L16.6396 18.1389C16.6396 18.4067 16.3719 18.5673 16.1041 18.5673L14.5512 18.3531C14.3906 18.3531 14.23 18.1925 14.1764 18.0318L12.9448 14.9261C12.8913 14.7654 12.9448 14.6048 12.9984 14.4441L13.159 14.23C13.159 14.1764 13.2661 14.1229 13.3732 14.0693L13.5874 13.9622C13.748 13.9087 13.9087 13.9622 14.0693 14.0158L16.6931 16.0506C16.8538 16.1577 16.9073 16.3183 16.8538 16.4789V16.586Z" fill="var(--fill-0, white)"/>
<path id="Vector_12" d="M12.7842 19.0492L11.8203 20.2808C11.6597 20.495 11.3384 20.5486 11.1242 20.3879L9.8926 19.4241C9.73196 19.317 9.67841 19.1563 9.73196 18.9957L10.2139 15.6757C10.2139 15.5151 10.3745 15.3544 10.5352 15.3009L10.91 15.1403H11.2848C11.4455 15.1938 11.6061 15.3544 11.6597 15.5151L12.8913 18.6208C12.9448 18.7815 12.8913 18.9421 12.8377 19.1028L12.7842 19.0492Z" fill="var(--fill-0, white)"/>
</g>
</svg>
