<svg preserveAspectRatio="none" width="100%" height="100%" overflow="visible" style="display: block;" viewBox="0 0 199.868 34.1321" fill="none" xmlns="http://www.w3.org/2000/svg">
<g id="Layer_1-2">
<path id="Vector" d="M44.5957 6.75919V2.02963H48.3436V6.75919H44.5957ZM44.5957 31.5671V10.1502H48.3436V31.5671H44.5957Z" fill="var(--fill-0, white)"/>
<path id="Vector_2" d="M68.8681 17.7353V31.5671H65.1202V18.8954C65.1202 17.7353 64.9417 16.6645 64.4955 15.8614C64.0493 15.0582 63.5139 14.4336 62.7108 13.9874C61.9076 13.5412 61.0153 13.2735 60.0337 13.2735C59.052 13.2735 58.1597 13.5412 57.3565 13.9874C56.5534 14.4336 55.9287 15.0582 55.4826 15.9506C55.0364 16.7537 54.7687 17.8246 54.7687 18.9847V31.6563H51.0207V10.1502H54.6794V12.8273C55.2149 12.0242 55.8395 11.3995 56.6426 10.8641C57.8027 10.1502 59.2305 9.70401 60.7475 9.70401C62.2646 9.70401 63.6924 10.061 64.8524 10.7749C66.0125 11.4888 66.9941 12.3811 67.708 13.6304C68.4219 14.8798 68.7789 16.2183 68.7789 17.7353H68.8681Z" fill="var(--fill-0, white)"/>
<path id="Vector_3" d="M78.8626 32.1025C76.721 32.1025 74.847 31.5671 73.2407 30.4962C71.6345 29.4254 70.4744 27.9976 69.8497 26.2128L72.7945 24.7851C73.4192 26.0344 74.2223 27.1052 75.2932 27.8191C76.364 28.533 77.5241 28.89 78.8626 28.89C80.2012 28.89 80.9151 28.6222 81.7182 28.0868C82.5214 27.5514 82.8783 26.8375 82.8783 25.9451C82.8783 25.0528 82.6998 24.7851 82.3429 24.4281C81.9859 24.0712 81.5398 23.7142 81.0936 23.5357C80.6474 23.268 80.112 23.1788 79.6658 23.0003L76.4532 22.1079C74.5793 21.5725 73.1515 20.7694 72.2591 19.7878C71.3667 18.7169 70.9206 17.5569 70.9206 16.1291C70.9206 14.7013 71.2775 13.7197 71.9022 12.8273C72.5268 11.8457 73.4192 11.1318 74.5793 10.5964C75.7394 10.061 76.9887 9.79325 78.4165 9.79325C79.8443 9.79325 81.9859 10.2394 83.503 11.221C85.02 12.2026 86.0908 13.5412 86.7155 15.2367L83.6814 16.6645C83.2353 15.5937 82.5214 14.7013 81.5398 14.0766C80.5581 13.452 79.4873 13.095 78.3272 13.095C77.1671 13.095 76.364 13.3627 75.7394 13.8981C75.1147 14.4336 74.7577 15.1475 74.7577 15.9506C74.7577 16.7537 74.9362 17.0214 75.2039 17.3784C75.5609 17.7353 75.9178 18.0923 76.364 18.2708C76.8102 18.4492 77.2564 18.6277 77.7026 18.8062L81.1828 19.877C82.9675 20.4124 84.3061 21.1263 85.2877 22.1972C86.2693 23.268 86.7155 24.5173 86.7155 26.0344C86.7155 27.5514 86.3585 28.2653 85.7339 29.2469C85.1092 30.2285 84.1276 30.9424 82.9675 31.4778C81.8075 32.0132 80.4689 32.281 78.9519 32.281L78.8626 32.1025Z" fill="var(--fill-0, white)"/>
<path id="Vector_4" d="M105.812 10.1502V31.5671H102.153V28.89C101.618 29.6931 100.993 30.407 100.19 30.9424C99.0302 31.6563 97.6024 32.1025 96.0854 32.1025C94.5683 32.1025 93.1406 31.7455 91.8912 31.0316C90.6419 30.3177 89.7496 29.3361 89.0357 27.9976C88.3218 26.659 87.9648 25.2312 87.9648 23.5357V10.1502H91.7128V23.1788C91.7128 24.2496 91.8912 25.142 92.3374 25.9451C92.7836 26.7483 93.4083 27.3729 94.1222 27.8191C94.9253 28.2653 95.8177 28.533 96.7993 28.533C97.7809 28.533 98.6732 28.3545 99.4764 27.8191C100.28 27.3729 100.904 26.7483 101.261 25.8559C101.707 25.0528 101.886 23.9819 101.886 22.8218V10.1502H105.634H105.812Z" fill="var(--fill-0, white)"/>
<path id="Vector_5" d="M119.198 9.97172V13.5412H117.324C115.807 13.5412 114.557 13.9874 113.665 14.969C112.773 15.9506 112.237 17.1999 112.237 18.9847V31.7455H108.489V10.1502H112.148V12.7381C112.594 11.9349 113.308 11.3103 114.022 10.7749C115.093 10.1502 116.342 9.88249 117.77 9.88249H119.109L119.198 9.97172Z" fill="var(--fill-0, white)"/>
<path id="Vector_6" d="M135.528 13.2735C134.814 12.2026 133.833 11.3103 132.583 10.6856C131.334 10.061 129.906 9.79325 128.211 9.79325C126.515 9.79325 125.712 9.97172 124.552 10.5071C123.392 10.9533 122.321 11.578 121.518 12.3811C120.626 13.1843 120.001 14.0766 119.644 15.0582L122.856 16.7537C123.303 15.7721 124.017 14.969 124.909 14.2551C125.891 13.6304 126.961 13.2735 128.121 13.2735C129.282 13.2735 130.62 13.6304 131.512 14.3443C132.316 15.0582 132.762 16.0398 132.762 17.1999V18.1815L125.444 19.4308C123.838 19.6985 122.5 20.1447 121.518 20.7694C120.447 21.3941 119.733 22.1972 119.198 23.0896C118.662 23.9819 118.484 25.0528 118.484 26.1236C118.484 27.1945 118.752 28.3545 119.376 29.2469C120.001 30.1393 120.804 30.8532 121.964 31.3886C123.124 31.924 124.284 32.1917 125.712 32.1917C127.14 32.1917 128.032 32.0132 129.103 31.6563C130.085 31.2994 131.066 30.7639 131.78 30.1393C132.226 29.7823 132.583 29.3361 132.94 28.9792V31.7455H136.599V17.1999C136.599 15.7721 136.242 14.5228 135.528 13.3627V13.2735ZM132.851 22.5541C132.851 23.7142 132.583 24.7851 132.048 25.7667C131.512 26.7483 130.709 27.5514 129.728 28.0868C128.746 28.6222 127.586 28.9792 126.247 28.9792C124.909 28.9792 124.284 28.7115 123.57 28.0868C122.856 27.5514 122.5 26.7483 122.5 25.8559C122.5 24.9635 122.767 24.1604 123.392 23.5357C124.017 22.9111 124.998 22.4649 126.426 22.2864L132.851 21.1263V22.5541Z" fill="var(--fill-0, white)"/>
<path id="Vector_7" d="M157.123 17.7353V31.5671H153.375V18.8954C153.375 17.7353 153.197 16.6645 152.751 15.8614C152.305 15.0582 151.68 14.4336 150.966 13.9874C150.163 13.5412 149.271 13.2735 148.289 13.2735C147.307 13.2735 146.415 13.5412 145.612 13.9874C144.809 14.4336 144.184 15.0582 143.738 15.9506C143.292 16.843 143.024 17.8246 143.024 18.9847V31.6563H139.276V10.1502H142.935V12.8273C143.47 12.0242 144.095 11.3995 144.898 10.8641C146.058 10.1502 147.486 9.70401 149.092 9.70401C150.698 9.70401 152.037 10.061 153.197 10.7749C154.357 11.4888 155.339 12.3811 156.053 13.6304C156.766 14.8798 157.123 16.2183 157.123 17.7353Z" fill="var(--fill-0, white)"/>
<path id="Vector_8" d="M169.349 32.1025C167.207 32.1025 165.333 31.6563 163.727 30.6747C162.121 29.6931 160.871 28.3545 159.89 26.659C158.908 24.9635 158.462 23.0896 158.462 20.9479C158.462 18.8062 158.908 16.9322 159.89 15.2367C160.782 13.5412 162.121 12.2026 163.727 11.221C165.333 10.2394 167.207 9.79325 169.349 9.79325C171.491 9.79325 172.026 10.061 173.275 10.5071C174.525 11.0426 175.595 11.6672 176.488 12.5596C177.38 13.452 178.094 14.4336 178.54 15.5044L175.239 17.1107C174.703 15.9506 173.989 15.0582 172.918 14.3443C171.848 13.6304 170.687 13.2735 169.349 13.2735C168.01 13.2735 166.85 13.6304 165.869 14.2551C164.798 14.8798 163.995 15.7721 163.37 16.9322C162.745 18.0923 162.478 19.4308 162.478 20.8586C162.478 22.2864 162.745 23.625 163.37 24.6958C163.995 25.8559 164.798 26.7483 165.869 27.3729C166.94 27.9976 168.1 28.3545 169.349 28.3545C170.598 28.3545 171.848 27.9976 172.918 27.2837C173.9 26.5698 174.703 25.6774 175.239 24.5173L178.54 26.2128C178.094 27.2837 177.469 28.3545 176.488 29.1577C175.595 30.05 174.525 30.6747 173.275 31.2101C172.026 31.7455 170.777 31.924 169.349 31.924V32.1025Z" fill="var(--fill-0, white)"/>
<path id="Vector_9" d="M199.243 16.1291C198.797 14.8798 198.083 13.8089 197.28 12.8273C196.477 11.8457 195.406 11.1318 194.157 10.5071C192.907 9.97172 191.48 9.61478 189.963 9.61478C188.446 9.61478 186.215 10.061 184.608 11.0426C183.002 12.0242 181.842 13.3627 180.86 14.969C179.968 16.6645 179.433 18.5385 179.433 20.6802C179.433 22.8218 179.879 24.6958 180.86 26.3913C181.842 28.0868 183.091 29.4254 184.698 30.407C186.304 31.3886 188.178 31.924 190.23 31.924C192.283 31.924 192.997 31.6563 194.246 31.2101C195.495 30.7639 196.477 30.05 197.369 29.2469C198.262 28.4438 198.886 27.5514 199.333 26.5698L196.209 24.9635C195.585 26.0344 194.781 26.8375 193.8 27.4622C192.818 28.0868 191.569 28.4438 190.141 28.4438C188.713 28.4438 187.642 28.0868 186.572 27.4622C185.501 26.8375 184.608 25.8559 184.073 24.6958C183.627 23.8035 183.359 22.8218 183.359 21.751H199.689C199.689 21.3941 199.779 21.0371 199.868 20.6802C199.868 20.3232 199.868 19.9663 199.868 19.6986C199.868 18.36 199.6 17.1107 199.154 15.8614L199.243 16.1291ZM184.073 16.6645C184.608 15.5044 185.412 14.612 186.482 13.9874C187.553 13.3627 188.624 13.0058 189.873 13.0058C191.123 13.0058 192.194 13.3627 193.175 13.9874C194.157 14.612 194.871 15.5044 195.406 16.5753C195.763 17.2892 195.852 18.003 195.942 18.8062H183.448C183.538 18.003 183.805 17.3784 184.073 16.6645Z" fill="var(--fill-0, white)"/>
<path id="Vector_10" d="M14.7013 25.7667L13.8981 31.2994C13.8981 31.5671 13.6304 31.8348 13.3627 31.924L10.9533 32.9056C10.5071 33.0841 10.061 32.9056 9.88249 32.4594L8.90088 30.05C8.81164 29.7823 8.90088 29.5146 8.99012 29.2469L12.3811 24.8743C12.5596 24.6066 12.8273 24.5173 13.095 24.6066H13.5412C13.7197 24.6066 13.8089 24.7851 13.8981 24.8743L14.2551 25.142C14.5228 25.3205 14.612 25.5882 14.5228 25.8559L14.7013 25.7667Z" fill="var(--fill-0, white)"/>
<path id="Vector_11" d="M10.6856 23.3573L7.29461 27.7299C7.11614 27.9976 6.84843 28.0868 6.58072 27.9976L3.99285 27.6406C3.54666 27.6406 3.27895 27.1945 3.27895 26.7483L3.6359 24.1604C3.6359 23.8927 3.90361 23.625 4.17132 23.5357L9.34706 21.4833C9.61478 21.3941 9.88249 21.4833 10.1502 21.5725L10.5071 21.8402C10.5964 21.8402 10.6856 22.0187 10.7749 22.1972L10.9533 22.6434C11.0426 22.9111 10.9533 23.1788 10.8641 23.4465L10.6856 23.3573Z" fill="var(--fill-0, white)"/>
<path id="Vector_12" d="M8.90088 18.0923V18.7169C8.90088 18.9847 8.63317 19.2524 8.36546 19.3416L3.18971 21.3941C2.922 21.4833 2.65429 21.3941 2.38658 21.3048L0.334133 19.6986C-0.0228149 19.4308 -0.112052 18.8954 0.155659 18.5385L1.76192 16.486C1.9404 16.2183 2.20811 16.1291 2.47582 16.2183L8.00851 17.0214C8.27622 17.0214 8.54393 17.2892 8.63317 17.5569L8.90088 18.1815V18.0923Z" fill="var(--fill-0, white)"/>
<path id="Vector_13" d="M9.25783 12.4704C9.52554 12.6488 9.61477 12.9165 9.52554 13.1843V13.8089C9.4363 13.8089 9.4363 13.8089 9.4363 13.8089L8.99012 14.3443C8.81164 14.612 8.54393 14.7013 8.27622 14.612L2.74353 13.8089C2.47582 13.8089 2.20811 13.5412 2.11887 13.2735L1.13727 10.8641C0.958791 10.4179 1.13727 9.97172 1.58345 9.79325L3.99285 8.81164C4.26056 8.72241 4.52827 8.81164 4.79598 8.90088L9.16859 12.2919L9.25783 12.4704Z" fill="var(--fill-0, white)"/>
<path id="Vector_14" d="M12.4704 9.97172L12.2026 10.3287C12.2026 10.4179 12.0242 10.5071 11.8457 10.5964L11.3995 10.7749C11.1318 10.8641 10.8641 10.7749 10.5964 10.6856L6.22377 7.29461C5.95606 7.11614 5.86682 6.84843 5.95606 6.58072L6.31301 3.99285C6.31301 3.54666 6.75919 3.27895 7.20538 3.27895L9.79325 3.6359C10.061 3.6359 10.3287 3.90361 10.4179 4.17132L12.4704 9.34706C12.5596 9.61478 12.4704 9.88249 12.3811 10.1502L12.4704 9.97172Z" fill="var(--fill-0, white)"/>
<path id="Vector_15" d="M17.9138 2.56506L17.1107 8.09775C17.1107 8.36546 16.843 8.63317 16.5753 8.7224L15.9506 8.99012H15.3259C15.0582 8.81164 14.7905 8.63317 14.7013 8.36546L12.6488 3.18971C12.5596 2.922 12.6488 2.65429 12.7381 2.38658L14.3443 0.334133C14.612 -0.0228149 15.1475 -0.112052 15.5044 0.155659L17.5569 1.76192C17.8246 1.9404 17.9138 2.20811 17.8246 2.47582L17.9138 2.56506Z" fill="var(--fill-0, white)"/>
<path id="Vector_16" d="M25.0528 4.88522L21.6618 9.25783C21.4833 9.52554 21.2156 9.61477 20.9479 9.52554H20.3232C20.3232 9.4363 20.3232 9.4363 20.3232 9.4363L19.7878 8.99012C19.5201 8.81164 19.4308 8.54393 19.5201 8.27622L20.3232 2.74353C20.3232 2.47582 20.5909 2.20811 20.8586 2.11887L23.268 1.13727C23.7142 0.958791 24.1604 1.13727 24.3389 1.58345L25.3205 3.99285C25.4097 4.26056 25.3205 4.52827 25.2312 4.79598L25.0528 4.88522Z" fill="var(--fill-0, white)"/>
<path id="Vector_17" d="M30.9424 7.29461L30.5855 9.88249C30.5855 10.1502 30.3177 10.4179 30.05 10.5071L24.8743 12.5596C24.6066 12.6488 24.3389 12.5596 24.0712 12.4704L23.7142 12.2026C23.625 12.2026 23.5357 12.0242 23.4465 11.8457L23.268 11.3995C23.1788 11.1318 23.268 10.8641 23.3573 10.5964L26.7483 6.22377C26.9267 5.95606 27.1945 5.86682 27.4622 5.95606L30.05 6.31301C30.4962 6.31301 30.7639 6.75919 30.7639 7.20538L30.9424 7.29461Z" fill="var(--fill-0, white)"/>
<path id="Vector_18" d="M33.9765 15.5044L32.3702 17.5569C32.1917 17.8246 31.924 17.9138 31.6563 17.8246L26.1236 17.0214C25.8559 17.0214 25.5882 16.7537 25.499 16.486L25.2312 15.8614V15.2367C25.2312 14.969 25.499 14.7013 25.7667 14.612L30.9424 12.5596C31.2101 12.4704 31.4778 12.5596 31.7455 12.6488L33.798 14.2551C34.1549 14.5228 34.2442 15.0582 33.9765 15.4152V15.5044Z" fill="var(--fill-0, white)"/>
<path id="Vector_19" d="M32.4594 24.1604L30.05 25.142C29.7823 25.2312 29.5146 25.142 29.2469 25.0528L24.8743 21.6618C24.6066 21.4833 24.5173 21.2156 24.6066 20.9479V20.3232L25.0528 19.7878C25.2312 19.5201 25.499 19.4308 25.7667 19.5201L31.2994 20.3232C31.5671 20.3232 31.8348 20.5909 31.924 20.8586L32.9056 23.268C33.0841 23.7142 32.9056 24.1604 32.4594 24.3389V24.1604Z" fill="var(--fill-0, white)"/>
<path id="Vector_20" d="M28.0868 27.6406L27.7299 30.2285C27.7299 30.6747 27.2837 30.9424 26.8375 30.9424L24.2496 30.5855C23.9819 30.5855 23.7142 30.3177 23.625 30.05L21.5725 24.8743C21.4833 24.6066 21.5725 24.3389 21.6618 24.0712L21.9295 23.7142C21.9295 23.625 22.1079 23.5357 22.2864 23.4465L22.6434 23.268C22.9111 23.1788 23.1788 23.268 23.4465 23.3573L27.8191 26.7483C28.0868 26.9267 28.1761 27.1945 28.0868 27.4622V27.6406Z" fill="var(--fill-0, white)"/>
<path id="Vector_21" d="M21.3048 31.7455L19.6985 33.798C19.4308 34.1549 18.8954 34.2442 18.5385 33.9765L16.486 32.3702C16.2183 32.1917 16.1291 31.924 16.2183 31.6563L17.0214 26.1236C17.0214 25.8559 17.2892 25.5882 17.5569 25.499L18.1815 25.2312H18.8062C19.0739 25.3205 19.3416 25.5882 19.4308 25.8559L21.4833 31.0316C21.5725 31.2994 21.4833 31.5671 21.3941 31.8348L21.3048 31.7455Z" fill="var(--fill-0, white)"/>
</g>
</svg>
