<svg width="30" height="30" viewBox="0 0 22.5 22.5" fill="none" xmlns="http://www.w3.org/2000/svg" preserveAspectRatio="xMidYMid meet">
<path id="Vector" d="M0.263672 0.263672C0.458984 0.0878906 0.683594 0 0.9375 0C1.19141 0 1.41602 0.0878906 1.61133 0.263672L20.625 19.3066V12.1875C20.625 11.9336 20.7178 11.7139 20.9033 11.5283C21.0889 11.3428 21.3086 11.25 21.5625 11.25C21.8164 11.25 22.0361 11.3428 22.2217 11.5283C22.4072 11.7139 22.5 11.9336 22.5 12.1875V21.5625C22.5 21.6211 22.4951 21.6797 22.4854 21.7383C22.4756 21.7969 22.4609 21.8555 22.4414 21.9141C22.3828 22.0312 22.3096 22.1338 22.2217 22.2217C22.1338 22.3096 22.0312 22.3828 21.9141 22.4414C21.8555 22.4609 21.7969 22.4756 21.7383 22.4854C21.6797 22.4951 21.6211 22.5 21.5625 22.5H12.1875C11.9336 22.5 11.7139 22.4072 11.5283 22.2217C11.3428 22.0361 11.25 21.8164 11.25 21.5625C11.25 21.3086 11.3428 21.0889 11.5283 20.9033C11.7139 20.7178 11.9336 20.625 12.1875 20.625H19.3066L0.263672 1.61133C0.0878906 1.41602 0 1.19141 0 0.9375C0 0.683594 0.0878906 0.458984 0.263672 0.263672Z" fill="var(--fill-0, black)"/>
</svg>
