<svg width="32" height="29" viewBox="0 0 32 28.6375" fill="none" xmlns="http://www.w3.org/2000/svg" preserveAspectRatio="xMidYMid meet">
<path id="Vector" d="M22 8V14C22 14.5417 22.1979 15.0104 22.5938 15.4062C22.9896 15.8021 23.4583 16 24 16H30V20C30 20.5417 29.8021 21.0104 29.4062 21.4062C29.0104 21.8021 28.5417 22 28 22H25.7188L24.7188 27.8125C24.6979 27.9375 24.651 28.0573 24.5781 28.1719C24.5052 28.2865 24.4167 28.375 24.3125 28.4375C24.2083 28.5208 24.0885 28.5781 23.9531 28.6094C23.8177 28.6406 23.6875 28.6458 23.5625 28.625L3.8125 24.9688C3.6875 24.9479 3.56771 24.901 3.45312 24.8281C3.33854 24.7552 3.25 24.6667 3.1875 24.5625C3.10417 24.4583 3.04688 24.3385 3.01562 24.2031C2.98438 24.0677 2.98958 23.9375 3.03125 23.8125L3.375 22H2C1.45833 22 0.989583 21.8021 0.59375 21.4062C0.197917 21.0104 0 20.5417 0 20V2C0 1.45833 0.197917 0.989583 0.59375 0.59375C0.989583 0.197917 1.45833 0 2 0H28C28.5417 0 29.0104 0.197917 29.4062 0.59375C29.8021 0.989583 30 1.45833 30 2V6H24C23.4583 6 22.9896 6.19792 22.5938 6.59375C22.1979 6.98958 22 7.45833 22 8ZM5.1875 23.1875L22.9375 26.4688L23.6875 22H5.40625L5.1875 23.1875ZM31 14H24V8H31C31.2708 8 31.5052 8.09896 31.7031 8.29688C31.901 8.49479 32 8.72917 32 9V13C32 13.2708 31.901 13.5052 31.7031 13.7031C31.5052 13.901 31.2708 14 31 14ZM27 10C26.7292 10 26.4948 10.099 26.2969 10.2969C26.099 10.4948 26 10.7292 26 11C26 11.2708 26.099 11.5052 26.2969 11.7031C26.4948 11.901 26.7292 12 27 12C27.2708 12 27.5052 11.901 27.7031 11.7031C27.901 11.5052 28 11.2708 28 11C28 10.7292 27.901 10.4948 27.7031 10.2969C27.5052 10.099 27.2708 10 27 10Z" fill="var(--fill-0, #8C8F97)"/>
</svg>
